<?xml version="1.0" encoding="UTF-8"?>
<!-- Generated by SVGo -->
<svg width="338.615mm" height="149.067mm" viewBox="0.000 0.000 338.615 149.067" xmlns="http://www.w3.org/2000/svg" xmlns:xlink="http://www.w3.org/1999/xlink"><script xmlns=""/><script xmlns=""/>
<polygon points="333.614,144.067 5.001,144.067 5.001,5.001 333.614,5.001" style="fill:none;stroke-width:0.050000mm;stroke:black"/>
<polygon points="128.968,127.540 128.968,132.240 89.344,132.240 89.344,129.009 82.594,129.009 82.594,132.240 81.769,132.240 81.769,135.041 82.594,135.041 82.594,141.311 84.319,141.311 84.319,142.511 87.619,142.511 87.619,141.311 89.344,141.311 89.344,136.841 128.968,136.841 128.968,141.541 142.969,141.541 142.969,136.841 182.594,136.841 182.594,141.311 184.319,141.311 184.319,142.511 187.619,142.511 187.619,141.311 189.344,141.311 189.344,135.041 190.169,135.041 190.169,132.240 189.344,132.240 189.344,129.009 182.594,129.009 182.594,132.240 142.969,132.240 142.969,127.540" style="fill:none;stroke-width:0.050000mm;stroke:black"/>
<polygon points="9.907,127.540 9.907,141.541 23.907,141.541 23.907,127.540" style="fill:none;stroke-width:0.050000mm;stroke:black"/>
<polygon points="33.719,127.540 33.719,141.541 47.719,141.541 47.719,127.540" style="fill:none;stroke-width:0.050000mm;stroke:black"/>
<polygon points="57.532,127.540 57.532,141.541 71.532,141.541 71.532,127.540" style="fill:none;stroke-width:0.050000mm;stroke:black"/>
<polygon points="200.407,127.540 200.407,141.541 214.407,141.541 214.407,127.540" style="fill:none;stroke-width:0.050000mm;stroke:black"/>
<polygon points="224.219,127.540 224.219,141.541 238.219,141.541 238.219,127.540" style="fill:none;stroke-width:0.050000mm;stroke:black"/>
<polygon points="255.176,127.540 255.176,141.541 269.176,141.541 269.176,127.540" style="fill:none;stroke-width:0.050000mm;stroke:black"/>
<polygon points="274.226,127.540 274.226,141.541 288.226,141.541 288.226,127.540" style="fill:none;stroke-width:0.050000mm;stroke:black"/>
<polygon points="293.276,127.540 293.276,141.541 307.276,141.541 307.276,127.540" style="fill:none;stroke-width:0.050000mm;stroke:black"/>
<polygon points="9.907,108.491 9.907,122.491 23.907,122.491 23.907,108.491" style="fill:none;stroke-width:0.050000mm;stroke:black"/>
<polygon points="31.338,108.491 31.338,122.491 45.338,122.491 45.338,108.491" style="fill:none;stroke-width:0.050000mm;stroke:black"/>
<polygon points="50.388,108.491 50.388,122.491 64.388,122.491 64.388,108.491" style="fill:none;stroke-width:0.050000mm;stroke:black"/>
<polygon points="69.438,108.491 69.438,122.491 83.438,122.491 83.438,108.491" style="fill:none;stroke-width:0.050000mm;stroke:black"/>
<polygon points="88.488,108.491 88.488,122.491 102.488,122.491 102.488,108.491" style="fill:none;stroke-width:0.050000mm;stroke:black"/>
<polygon points="107.538,108.491 107.538,122.491 121.538,122.491 121.538,108.491" style="fill:none;stroke-width:0.050000mm;stroke:black"/>
<polygon points="126.588,108.491 126.588,122.491 140.588,122.491 140.588,108.491" style="fill:none;stroke-width:0.050000mm;stroke:black"/>
<polygon points="145.638,108.491 145.638,122.491 159.638,122.491 159.638,108.491" style="fill:none;stroke-width:0.050000mm;stroke:black"/>
<polygon points="164.688,108.491 164.688,122.491 178.688,122.491 178.688,108.491" style="fill:none;stroke-width:0.050000mm;stroke:black"/>
<polygon points="183.738,108.491 183.738,122.491 197.738,122.491 197.738,108.491" style="fill:none;stroke-width:0.050000mm;stroke:black"/>
<polygon points="202.788,108.491 202.788,122.491 216.788,122.491 216.788,108.491" style="fill:none;stroke-width:0.050000mm;stroke:black"/>
<polygon points="221.838,108.491 221.838,122.491 235.838,122.491 235.838,108.491" style="fill:none;stroke-width:0.050000mm;stroke:black"/>
<polygon points="248.032,108.491 248.032,122.491 262.032,122.491 262.032,108.491" style="fill:none;stroke-width:0.050000mm;stroke:black"/>
<polygon points="274.226,108.491 274.226,122.491 288.226,122.491 288.226,108.491" style="fill:none;stroke-width:0.050000mm;stroke:black"/>
<polygon points="317.088,108.491 317.088,122.491 331.088,122.491 331.088,108.491" style="fill:none;stroke-width:0.050000mm;stroke:black"/>
<polygon points="14.669,89.441 14.669,103.441 28.669,103.441 28.669,89.441" style="fill:none;stroke-width:0.050000mm;stroke:black"/>
<polygon points="40.863,89.441 40.863,103.441 54.863,103.441 54.863,89.441" style="fill:none;stroke-width:0.050000mm;stroke:black"/>
<polygon points="59.913,89.441 59.913,103.441 73.913,103.441 73.913,89.441" style="fill:none;stroke-width:0.050000mm;stroke:black"/>
<polygon points="78.963,89.441 78.963,103.441 92.963,103.441 92.963,89.441" style="fill:none;stroke-width:0.050000mm;stroke:black"/>
<polygon points="98.013,89.441 98.013,103.441 112.013,103.441 112.013,89.441" style="fill:none;stroke-width:0.050000mm;stroke:black"/>
<polygon points="117.063,89.441 117.063,103.441 131.063,103.441 131.063,89.441" style="fill:none;stroke-width:0.050000mm;stroke:black"/>
<polygon points="136.113,89.441 136.113,103.441 150.113,103.441 150.113,89.441" style="fill:none;stroke-width:0.050000mm;stroke:black"/>
<polygon points="155.163,89.441 155.163,103.441 169.163,103.441 169.163,89.441" style="fill:none;stroke-width:0.050000mm;stroke:black"/>
<polygon points="174.213,89.441 174.213,103.441 188.213,103.441 188.213,89.441" style="fill:none;stroke-width:0.050000mm;stroke:black"/>
<polygon points="193.263,89.441 193.263,103.441 207.263,103.441 207.263,89.441" style="fill:none;stroke-width:0.050000mm;stroke:black"/>
<polygon points="212.313,89.441 212.313,103.441 226.313,103.441 226.313,89.441" style="fill:none;stroke-width:0.050000mm;stroke:black"/>
<polygon points="231.363,89.441 231.363,103.441 245.363,103.441 245.363,89.441" style="fill:none;stroke-width:0.050000mm;stroke:black"/>
<polygon points="250.413,89.441 250.413,103.441 264.413,103.441 264.413,89.441" style="fill:none;stroke-width:0.050000mm;stroke:black"/>
<polygon points="298.038,89.441 298.038,103.441 312.038,103.441 312.038,89.441" style="fill:none;stroke-width:0.050000mm;stroke:black"/>
<polygon points="317.088,89.441 317.088,103.441 331.088,103.441 331.088,89.441" style="fill:none;stroke-width:0.050000mm;stroke:black"/>
<polygon points="278.344,70.816 278.344,71.641 272.074,71.641 272.074,73.366 270.874,73.366 270.874,76.666 272.074,76.666 272.074,78.391 276.544,78.391 276.544,79.916 271.844,79.916 271.844,93.916 276.544,93.916 276.544,95.441 272.074,95.441 272.074,97.166 270.874,97.166 270.874,100.466 272.074,100.466 272.074,102.191 278.344,102.191 278.344,103.016 281.144,103.016 281.144,102.191 284.374,102.191 284.374,95.441 281.144,95.441 281.144,93.916 285.844,93.916 285.844,79.916 281.144,79.916 281.144,78.391 284.374,78.391 284.374,71.641 281.144,71.641 281.144,70.816" style="fill:none;stroke-width:0.050000mm;stroke:black"/>
<polygon points="12.288,70.391 12.288,84.391 26.288,84.391 26.288,70.391" style="fill:none;stroke-width:0.050000mm;stroke:black"/>
<polygon points="36.101,70.391 36.101,84.391 50.101,84.391 50.101,70.391" style="fill:none;stroke-width:0.050000mm;stroke:black"/>
<polygon points="55.151,70.391 55.151,84.391 69.151,84.391 69.151,70.391" style="fill:none;stroke-width:0.050000mm;stroke:black"/>
<polygon points="74.201,70.391 74.201,84.391 88.201,84.391 88.201,70.391" style="fill:none;stroke-width:0.050000mm;stroke:black"/>
<polygon points="93.251,70.391 93.251,84.391 107.251,84.391 107.251,70.391" style="fill:none;stroke-width:0.050000mm;stroke:black"/>
<polygon points="112.301,70.391 112.301,84.391 126.301,84.391 126.301,70.391" style="fill:none;stroke-width:0.050000mm;stroke:black"/>
<polygon points="131.351,70.391 131.351,84.391 145.351,84.391 145.351,70.391" style="fill:none;stroke-width:0.050000mm;stroke:black"/>
<polygon points="150.401,70.391 150.401,84.391 164.401,84.391 164.401,70.391" style="fill:none;stroke-width:0.050000mm;stroke:black"/>
<polygon points="169.451,70.391 169.451,84.391 183.451,84.391 183.451,70.391" style="fill:none;stroke-width:0.050000mm;stroke:black"/>
<polygon points="188.501,70.391 188.501,84.391 202.501,84.391 202.501,70.391" style="fill:none;stroke-width:0.050000mm;stroke:black"/>
<polygon points="207.551,70.391 207.551,84.391 221.551,84.391 221.551,70.391" style="fill:none;stroke-width:0.050000mm;stroke:black"/>
<polygon points="226.601,70.391 226.601,84.391 240.601,84.391 240.601,70.391" style="fill:none;stroke-width:0.050000mm;stroke:black"/>
<polygon points="245.651,70.391 245.651,84.391 259.650,84.391 259.650,70.391" style="fill:none;stroke-width:0.050000mm;stroke:black"/>
<polygon points="298.038,70.391 298.038,84.391 312.038,84.391 312.038,70.391" style="fill:none;stroke-width:0.050000mm;stroke:black"/>
<polygon points="317.088,70.391 317.088,84.391 331.088,84.391 331.088,70.391" style="fill:none;stroke-width:0.050000mm;stroke:black"/>
<polygon points="264.701,51.340 264.701,56.041 263.176,56.041 263.176,52.810 256.426,52.810 256.426,56.041 255.601,56.041 255.601,58.840 256.426,58.840 256.426,65.111 258.150,65.111 258.150,66.311 261.451,66.311 261.451,65.111 263.176,65.111 263.176,60.640 264.701,60.640 264.701,65.341 278.701,65.341 278.701,60.640 280.226,60.640 280.226,65.111 281.951,65.111 281.951,66.311 285.251,66.311 285.251,65.111 286.976,65.111 286.976,58.840 287.801,58.840 287.801,56.041 286.976,56.041 286.976,52.810 280.226,52.810 280.226,56.041 278.701,56.041 278.701,51.340" style="fill:none;stroke-width:0.050000mm;stroke:black"/>
<polygon points="7.526,51.340 7.526,65.341 21.526,65.341 21.526,51.340" style="fill:none;stroke-width:0.050000mm;stroke:black"/>
<polygon points="26.576,51.340 26.576,65.341 40.576,65.341 40.576,51.340" style="fill:none;stroke-width:0.050000mm;stroke:black"/>
<polygon points="45.626,51.340 45.626,65.341 59.626,65.341 59.626,51.340" style="fill:none;stroke-width:0.050000mm;stroke:black"/>
<polygon points="64.676,51.340 64.676,65.341 78.676,65.341 78.676,51.340" style="fill:none;stroke-width:0.050000mm;stroke:black"/>
<polygon points="83.726,51.340 83.726,65.341 97.726,65.341 97.726,51.340" style="fill:none;stroke-width:0.050000mm;stroke:black"/>
<polygon points="102.775,51.340 102.775,65.341 116.775,65.341 116.775,51.340" style="fill:none;stroke-width:0.050000mm;stroke:black"/>
<polygon points="121.825,51.340 121.825,65.341 135.826,65.341 135.826,51.340" style="fill:none;stroke-width:0.050000mm;stroke:black"/>
<polygon points="140.876,51.340 140.876,65.341 154.876,65.341 154.876,51.340" style="fill:none;stroke-width:0.050000mm;stroke:black"/>
<polygon points="159.926,51.340 159.926,65.341 173.926,65.341 173.926,51.340" style="fill:none;stroke-width:0.050000mm;stroke:black"/>
<polygon points="178.976,51.340 178.976,65.341 192.976,65.341 192.976,51.340" style="fill:none;stroke-width:0.050000mm;stroke:black"/>
<polygon points="198.026,51.340 198.026,65.341 212.026,65.341 212.026,51.340" style="fill:none;stroke-width:0.050000mm;stroke:black"/>
<polygon points="217.076,51.340 217.076,65.341 231.076,65.341 231.076,51.340" style="fill:none;stroke-width:0.050000mm;stroke:black"/>
<polygon points="236.126,51.340 236.126,65.341 250.126,65.341 250.126,51.340" style="fill:none;stroke-width:0.050000mm;stroke:black"/>
<polygon points="298.038,51.340 298.038,65.341 312.038,65.341 312.038,51.340" style="fill:none;stroke-width:0.050000mm;stroke:black"/>
<polygon points="317.088,51.340 317.088,65.341 331.088,65.341 331.088,51.340" style="fill:none;stroke-width:0.050000mm;stroke:black"/>
<polygon points="7.526,29.433 7.526,43.433 21.526,43.433 21.526,29.433" style="fill:none;stroke-width:0.050000mm;stroke:black"/>
<polygon points="36.101,29.433 36.101,43.433 50.101,43.433 50.101,29.433" style="fill:none;stroke-width:0.050000mm;stroke:black"/>
<polygon points="55.151,29.433 55.151,43.433 69.151,43.433 69.151,29.433" style="fill:none;stroke-width:0.050000mm;stroke:black"/>
<polygon points="74.201,29.433 74.201,43.433 88.201,43.433 88.201,29.433" style="fill:none;stroke-width:0.050000mm;stroke:black"/>
<polygon points="93.251,29.433 93.251,43.433 107.251,43.433 107.251,29.433" style="fill:none;stroke-width:0.050000mm;stroke:black"/>
<polygon points="117.063,29.433 117.063,43.433 131.063,43.433 131.063,29.433" style="fill:none;stroke-width:0.050000mm;stroke:black"/>
<polygon points="136.113,29.433 136.113,43.433 150.113,43.433 150.113,29.433" style="fill:none;stroke-width:0.050000mm;stroke:black"/>
<polygon points="155.163,29.433 155.163,43.433 169.163,43.433 169.163,29.433" style="fill:none;stroke-width:0.050000mm;stroke:black"/>
<polygon points="174.213,29.433 174.213,43.433 188.213,43.433 188.213,29.433" style="fill:none;stroke-width:0.050000mm;stroke:black"/>
<polygon points="198.026,29.433 198.026,43.433 212.026,43.433 212.026,29.433" style="fill:none;stroke-width:0.050000mm;stroke:black"/>
<polygon points="217.076,29.433 217.076,43.433 231.076,43.433 231.076,29.433" style="fill:none;stroke-width:0.050000mm;stroke:black"/>
<polygon points="236.126,29.433 236.126,43.433 250.126,43.433 250.126,29.433" style="fill:none;stroke-width:0.050000mm;stroke:black"/>
<polygon points="255.176,29.433 255.176,43.433 269.176,43.433 269.176,29.433" style="fill:none;stroke-width:0.050000mm;stroke:black"/>
<polygon points="278.988,29.433 278.988,43.433 292.988,43.433 292.988,29.433" style="fill:none;stroke-width:0.050000mm;stroke:black"/>
<polygon points="298.038,29.433 298.038,43.433 312.038,43.433 312.038,29.433" style="fill:none;stroke-width:0.050000mm;stroke:black"/>
<polygon points="317.088,29.433 317.088,43.433 331.088,43.433 331.088,29.433" style="fill:none;stroke-width:0.050000mm;stroke:black"/>
<polygon points="7.526,7.526 7.526,21.526 21.526,21.526 21.526,7.526" style="fill:none;stroke-width:0.050000mm;stroke:black"/>
<polygon points="26.576,7.526 26.576,21.526 40.576,21.526 40.576,7.526" style="fill:none;stroke-width:0.050000mm;stroke:black"/>
<polygon points="50.388,7.526 50.388,21.526 64.388,21.526 64.388,7.526" style="fill:none;stroke-width:0.050000mm;stroke:black"/>
<polygon points="69.438,7.526 69.438,21.526 83.438,21.526 83.438,7.526" style="fill:none;stroke-width:0.050000mm;stroke:black"/>
<polygon points="93.251,7.526 93.251,21.526 107.251,21.526 107.251,7.526" style="fill:none;stroke-width:0.050000mm;stroke:black"/>
<polygon points="112.301,7.526 112.301,21.526 126.301,21.526 126.301,7.526" style="fill:none;stroke-width:0.050000mm;stroke:black"/>
<polygon points="136.113,7.526 136.113,21.526 150.113,21.526 150.113,7.526" style="fill:none;stroke-width:0.050000mm;stroke:black"/>
<polygon points="155.163,7.526 155.163,21.526 169.163,21.526 169.163,7.526" style="fill:none;stroke-width:0.050000mm;stroke:black"/>
<polygon points="178.976,7.526 178.976,21.526 192.976,21.526 192.976,7.526" style="fill:none;stroke-width:0.050000mm;stroke:black"/>
<polygon points="198.026,7.526 198.026,21.526 212.026,21.526 212.026,7.526" style="fill:none;stroke-width:0.050000mm;stroke:black"/>
<polygon points="221.838,7.526 221.838,21.526 235.838,21.526 235.838,7.526" style="fill:none;stroke-width:0.050000mm;stroke:black"/>
<polygon points="240.888,7.526 240.888,21.526 254.888,21.526 254.888,7.526" style="fill:none;stroke-width:0.050000mm;stroke:black"/>
<polygon points="278.988,7.526 278.988,21.526 292.988,21.526 292.988,7.526" style="fill:none;stroke-width:0.050000mm;stroke:black"/>
<polygon points="298.038,7.526 298.038,21.526 312.038,21.526 312.038,7.526" style="fill:none;stroke-width:0.050000mm;stroke:black"/>
<polygon points="317.088,7.526 317.088,21.526 331.088,21.526 331.088,7.526" style="fill:none;stroke-width:0.050000mm;stroke:black"/>
</svg>