G04 #@! TF.GenerationSoftware,KiCad,Pcbnew,7.0.8*
G04 #@! TF.CreationDate,2024-02-16T20:15:50-06:00*
G04 #@! TF.ProjectId,VesselV3,56657373-656c-4563-932e-6b696361645f,3.0*
G04 #@! TF.SameCoordinates,Original*
G04 #@! TF.FileFunction,Paste,Top*
G04 #@! TF.FilePolarity,Positive*
%FSLAX46Y46*%
G04 Gerber Fmt 4.6, Leading zero omitted, Abs format (unit mm)*
G04 Created by KiCad (PCBNEW 7.0.8) date 2024-02-16 20:15:50*
%MOMM*%
%LPD*%
G01*
G04 APERTURE LIST*
G04 Aperture macros list*
%AMRotRect*
0 Rectangle, with rotation*
0 The origin of the aperture is its center*
0 $1 length*
0 $2 width*
0 $3 Rotation angle, in degrees counterclockwise*
0 Add horizontal line*
21,1,$1,$2,0,0,$3*%
G04 Aperture macros list end*
%ADD10RotRect,0.950000X1.450000X45.000000*%
%ADD11RotRect,1.150000X1.450000X45.000000*%
%ADD12R,0.647700X0.609600*%
%ADD13R,0.950000X1.450000*%
%ADD14RotRect,1.150000X1.450000X135.000000*%
%ADD15R,0.600000X1.250000*%
%ADD16R,0.300000X1.250000*%
%ADD17R,1.390000X0.910000*%
%ADD18R,1.200000X1.200000*%
%ADD19RotRect,0.650000X2.850000X135.000000*%
%ADD20RotRect,0.450000X1.475000X45.000000*%
%ADD21R,1.020000X1.470000*%
%ADD22R,1.450000X1.150000*%
%ADD23RotRect,0.910000X1.390000X315.000000*%
%ADD24R,1.000000X2.100000*%
%ADD25R,4.900000X5.850000*%
%ADD26R,1.220000X1.200000*%
%ADD27R,1.050000X0.600000*%
%ADD28RotRect,0.950000X1.000000X225.000000*%
%ADD29RotRect,0.300000X1.475000X135.000000*%
%ADD30RotRect,0.300000X1.475000X45.000000*%
%ADD31RotRect,1.150000X1.450000X315.000000*%
%ADD32R,1.450000X0.950000*%
%ADD33R,0.600000X1.200000*%
%ADD34R,1.400000X0.950000*%
%ADD35RotRect,0.950000X1.450000X135.000000*%
%ADD36RotRect,0.400000X1.050000X315.000000*%
%ADD37R,1.200000X0.600000*%
%ADD38RotRect,0.950000X1.400000X225.000000*%
%ADD39RotRect,1.150000X1.450000X225.000000*%
%ADD40RotRect,1.500000X5.500000X45.000000*%
%ADD41R,1.160000X1.820000*%
%ADD42RotRect,0.510000X0.600000X45.000000*%
%ADD43R,5.500000X1.000000*%
%ADD44R,3.000000X1.600000*%
G04 APERTURE END LIST*
D10*
X343136793Y-185928007D03*
X344551007Y-184513793D03*
D11*
X193037208Y-54485792D03*
X194310000Y-53213000D03*
D12*
X177673050Y-211868701D03*
X177673050Y-212868699D03*
X180149550Y-212868699D03*
X180149550Y-211868701D03*
D10*
X148772793Y-34961707D03*
X150187007Y-33547493D03*
D13*
X140329000Y-46615000D03*
X142329000Y-46615000D03*
D10*
X347382693Y-190009207D03*
X348796907Y-188594993D03*
D14*
X180595396Y-59056396D03*
X179322604Y-57783604D03*
D12*
X139668250Y-193818699D03*
X139668250Y-192818701D03*
X137191750Y-192818701D03*
X137191750Y-193818699D03*
D15*
X248780000Y-34158000D03*
X247980000Y-34158000D03*
D16*
X246830000Y-34158000D03*
X245830000Y-34158000D03*
X245330000Y-34158000D03*
X244330000Y-34158000D03*
D15*
X243180000Y-34158000D03*
X242380000Y-34158000D03*
D16*
X243830000Y-34158000D03*
X244830000Y-34158000D03*
X246330000Y-34158000D03*
X247330000Y-34158000D03*
D12*
X168243250Y-114761199D03*
X168243250Y-113761201D03*
X165766750Y-113761201D03*
X165766750Y-114761199D03*
X151479250Y-135668701D03*
X151479250Y-136668699D03*
X153955750Y-136668699D03*
X153955750Y-135668701D03*
X63373050Y-173768701D03*
X63373050Y-174768699D03*
X65849550Y-174768699D03*
X65849550Y-173768701D03*
X161004250Y-91853701D03*
X161004250Y-92853699D03*
X163480750Y-92853699D03*
X163480750Y-91853701D03*
D17*
X240393000Y-58130600D03*
X240393000Y-59770600D03*
D12*
X163480750Y-155718699D03*
X163480750Y-154718701D03*
X161004250Y-154718701D03*
X161004250Y-155718699D03*
X184816750Y-173768701D03*
X184816750Y-174768699D03*
X187293250Y-174768699D03*
X187293250Y-173768701D03*
X287305750Y-114761199D03*
X287305750Y-113761201D03*
X284829250Y-113761201D03*
X284829250Y-114761199D03*
X239680750Y-155718699D03*
X239680750Y-154718701D03*
X237204250Y-154718701D03*
X237204250Y-155718699D03*
X177768250Y-193818699D03*
X177768250Y-192818701D03*
X175291750Y-192818701D03*
X175291750Y-193818699D03*
D18*
X252095000Y-45269000D03*
X252095000Y-42469000D03*
D19*
X209187055Y-34689047D03*
X206818247Y-37057855D03*
X208289029Y-33791022D03*
X205920222Y-36159829D03*
X207391004Y-32892996D03*
X205022196Y-35261804D03*
X206492978Y-31994971D03*
X204124171Y-34363778D03*
X205594953Y-31096945D03*
X203226145Y-33465753D03*
D20*
X294784879Y-52632162D03*
X294325259Y-53091781D03*
X293865640Y-53551401D03*
X293406020Y-54011020D03*
X292946401Y-54470640D03*
X292486781Y-54930259D03*
X292027162Y-55389879D03*
X296182121Y-59544838D03*
X296641741Y-59085219D03*
X297101360Y-58625599D03*
X297560980Y-58165980D03*
X298020599Y-57706360D03*
X298480219Y-57246741D03*
X298939838Y-56787121D03*
D21*
X222769000Y-57575000D03*
X224389000Y-57575000D03*
D12*
X182530750Y-155718699D03*
X182530750Y-154718701D03*
X180054250Y-154718701D03*
X180054250Y-155718699D03*
D14*
X300863000Y-54991000D03*
X299590208Y-53718208D03*
D12*
X215868250Y-193818699D03*
X215868250Y-192818701D03*
X213391750Y-192818701D03*
X213391750Y-193818699D03*
X144430750Y-114761199D03*
X144430750Y-113761201D03*
X141954250Y-113761201D03*
X141954250Y-114761199D03*
X203866750Y-173768701D03*
X203866750Y-174768699D03*
X206343250Y-174768699D03*
X206343250Y-173768701D03*
X322929250Y-211868701D03*
X322929250Y-212868699D03*
X325405750Y-212868699D03*
X325405750Y-211868701D03*
X253968250Y-193818699D03*
X253968250Y-192818701D03*
X251491750Y-192818701D03*
X251491750Y-193818699D03*
X249110550Y-211868701D03*
X249110550Y-212868699D03*
X251587050Y-212868699D03*
X251587050Y-211868701D03*
D10*
X152963793Y-38898707D03*
X154378007Y-37484493D03*
D12*
X368268250Y-114761199D03*
X368268250Y-113761201D03*
X365791750Y-113761201D03*
X365791750Y-114761199D03*
X220630750Y-155718699D03*
X220630750Y-154718701D03*
X218154250Y-154718701D03*
X218154250Y-155718699D03*
D22*
X378333000Y-173377000D03*
X378333000Y-171577000D03*
D12*
X272923050Y-211868701D03*
X272923050Y-212868699D03*
X275399550Y-212868699D03*
X275399550Y-211868701D03*
D22*
X378333000Y-91694000D03*
X378333000Y-89894000D03*
X378333000Y-135382000D03*
X378333000Y-133582000D03*
D12*
X323024550Y-165243699D03*
X323024550Y-164243701D03*
X320548050Y-164243701D03*
X320548050Y-165243699D03*
X327691750Y-91853701D03*
X327691750Y-92853699D03*
X330168250Y-92853699D03*
X330168250Y-91853701D03*
X101568250Y-193818699D03*
X101568250Y-192818701D03*
X99091750Y-192818701D03*
X99091750Y-193818699D03*
X106330750Y-114761199D03*
X106330750Y-113761201D03*
X103854250Y-113761201D03*
X103854250Y-114761199D03*
D23*
X298276572Y-61421572D03*
X299436228Y-62581228D03*
D24*
X247771000Y-58896000D03*
X243211000Y-58896000D03*
D25*
X245491000Y-65696000D03*
D21*
X222779000Y-51145000D03*
X224399000Y-51145000D03*
D12*
X82518250Y-193818699D03*
X82518250Y-192818701D03*
X80041750Y-192818701D03*
X80041750Y-193818699D03*
X365791750Y-91853701D03*
X365791750Y-92853699D03*
X368268250Y-92853699D03*
X368268250Y-91853701D03*
X144430750Y-155718699D03*
X144430750Y-154718701D03*
X141954250Y-154718701D03*
X141954250Y-155718699D03*
X158718250Y-193818699D03*
X158718250Y-192818701D03*
X156241750Y-192818701D03*
X156241750Y-193818699D03*
D26*
X252095000Y-39803000D03*
X252095000Y-36703000D03*
D12*
X201580750Y-155718699D03*
X201580750Y-154718701D03*
X199104250Y-154718701D03*
X199104250Y-155718699D03*
X227679250Y-135668701D03*
X227679250Y-136668699D03*
X230155750Y-136668699D03*
X230155750Y-135668701D03*
D27*
X142579000Y-41315000D03*
X142579000Y-39415000D03*
X140379000Y-40365000D03*
D28*
X170718485Y-54538415D03*
X169587115Y-55669785D03*
D22*
X238506000Y-43002200D03*
X238506000Y-44802200D03*
D29*
X177948971Y-52078728D03*
X178302524Y-52432282D03*
X178656078Y-52785835D03*
X179009631Y-53139388D03*
X179363184Y-53492942D03*
X179716738Y-53846495D03*
X180070291Y-54200049D03*
X180423845Y-54553602D03*
X180777398Y-54907155D03*
X181130951Y-55260709D03*
X181484505Y-55614262D03*
X181838058Y-55967816D03*
X182191612Y-56321369D03*
X182545165Y-56674922D03*
X182898718Y-57028476D03*
X183252272Y-57382029D03*
D30*
X186063728Y-57382029D03*
X186417282Y-57028476D03*
X186770835Y-56674922D03*
X187124388Y-56321369D03*
X187477942Y-55967816D03*
X187831495Y-55614262D03*
X188185049Y-55260709D03*
X188538602Y-54907155D03*
X188892155Y-54553602D03*
X189245709Y-54200049D03*
X189599262Y-53846495D03*
X189952816Y-53492942D03*
X190306369Y-53139388D03*
X190659922Y-52785835D03*
X191013476Y-52432282D03*
X191367029Y-52078728D03*
D29*
X191367029Y-49267272D03*
X191013476Y-48913718D03*
X190659922Y-48560165D03*
X190306369Y-48206612D03*
X189952816Y-47853058D03*
X189599262Y-47499505D03*
X189245709Y-47145951D03*
X188892155Y-46792398D03*
X188538602Y-46438845D03*
X188185049Y-46085291D03*
X187831495Y-45731738D03*
X187477942Y-45378184D03*
X187124388Y-45024631D03*
X186770835Y-44671078D03*
X186417282Y-44317524D03*
X186063728Y-43963971D03*
D30*
X183252272Y-43963971D03*
X182898718Y-44317524D03*
X182545165Y-44671078D03*
X182191612Y-45024631D03*
X181838058Y-45378184D03*
X181484505Y-45731738D03*
X181130951Y-46085291D03*
X180777398Y-46438845D03*
X180423845Y-46792398D03*
X180070291Y-47145951D03*
X179716738Y-47499505D03*
X179363184Y-47853058D03*
X179009631Y-48206612D03*
X178656078Y-48560165D03*
X178302524Y-48913718D03*
X177948971Y-49267272D03*
D12*
X75279250Y-91853701D03*
X75279250Y-92853699D03*
X77755750Y-92853699D03*
X77755750Y-91853701D03*
D31*
X296291000Y-50419000D03*
X297563792Y-51691792D03*
D12*
X365791750Y-173768701D03*
X365791750Y-174768699D03*
X368268250Y-174768699D03*
X368268250Y-173768701D03*
D22*
X378333000Y-113560000D03*
X378333000Y-111760000D03*
D12*
X325405750Y-193818699D03*
X325405750Y-192818701D03*
X322929250Y-192818701D03*
X322929250Y-193818699D03*
D28*
X184376785Y-68058115D03*
X183245415Y-69189485D03*
D12*
X75279250Y-135668701D03*
X75279250Y-136668699D03*
X77755750Y-136668699D03*
X77755750Y-135668701D03*
X165766750Y-173768701D03*
X165766750Y-174768699D03*
X168243250Y-174768699D03*
X168243250Y-173768701D03*
X89566750Y-173768701D03*
X89566750Y-174768699D03*
X92043250Y-174768699D03*
X92043250Y-173768701D03*
X63468250Y-155718699D03*
X63468250Y-154718701D03*
X60991750Y-154718701D03*
X60991750Y-155718699D03*
X99091750Y-91853701D03*
X99091750Y-92853699D03*
X101568250Y-92853699D03*
X101568250Y-91853701D03*
X368268250Y-193818699D03*
X368268250Y-192818701D03*
X365791750Y-192818701D03*
X365791750Y-193818699D03*
X196818250Y-193818699D03*
X196818250Y-192818701D03*
X194341750Y-192818701D03*
X194341750Y-193818699D03*
X146716750Y-173768701D03*
X146716750Y-174768699D03*
X149193250Y-174768699D03*
X149193250Y-173768701D03*
D32*
X378333000Y-199882000D03*
X378333000Y-197882000D03*
D23*
X299546572Y-60151572D03*
X300706228Y-61311228D03*
D12*
X241966750Y-173768701D03*
X241966750Y-174768699D03*
X244443250Y-174768699D03*
X244443250Y-173768701D03*
X125380750Y-155718699D03*
X125380750Y-154718701D03*
X122904250Y-154718701D03*
X122904250Y-155718699D03*
D23*
X300816572Y-58881572D03*
X301976228Y-60041228D03*
D33*
X222779000Y-55625000D03*
X223729000Y-55625000D03*
X224679000Y-55625000D03*
X224679000Y-53125000D03*
X222779000Y-53125000D03*
D12*
X341979250Y-211868701D03*
X341979250Y-212868699D03*
X344455750Y-212868699D03*
X344455750Y-211868701D03*
D34*
X256921000Y-34613600D03*
X256921000Y-32613600D03*
D35*
X348742007Y-185928007D03*
X347327793Y-184513793D03*
D12*
X296830750Y-155718699D03*
X296830750Y-154718701D03*
X294354250Y-154718701D03*
X294354250Y-155718699D03*
X268255750Y-114761199D03*
X268255750Y-113761201D03*
X265779250Y-113761201D03*
X265779250Y-114761199D03*
X303879250Y-211868701D03*
X303879250Y-212868699D03*
X306355750Y-212868699D03*
X306355750Y-211868701D03*
X346741750Y-173768701D03*
X346741750Y-174768699D03*
X349218250Y-174768699D03*
X349218250Y-173768701D03*
X141954250Y-91853701D03*
X141954250Y-92853699D03*
X144430750Y-92853699D03*
X144430750Y-91853701D03*
X258730750Y-155718699D03*
X258730750Y-154718701D03*
X256254250Y-154718701D03*
X256254250Y-155718699D03*
X299212050Y-193818699D03*
X299212050Y-192818701D03*
X296735550Y-192818701D03*
X296735550Y-193818699D03*
D31*
X186309000Y-40259000D03*
X187581792Y-41531792D03*
D12*
X234918250Y-193818699D03*
X234918250Y-192818701D03*
X232441750Y-192818701D03*
X232441750Y-193818699D03*
D14*
X155321000Y-33655000D03*
X154048208Y-32382208D03*
D12*
X184816750Y-91853701D03*
X184816750Y-92853699D03*
X187293250Y-92853699D03*
X187293250Y-91853701D03*
X58705750Y-114761199D03*
X58705750Y-113761201D03*
X56229250Y-113761201D03*
X56229250Y-114761199D03*
X56229250Y-91853701D03*
X56229250Y-92853699D03*
X58705750Y-92853699D03*
X58705750Y-91853701D03*
X208629250Y-135668701D03*
X208629250Y-136668699D03*
X211105750Y-136668699D03*
X211105750Y-135668701D03*
X189579250Y-135668701D03*
X189579250Y-136668699D03*
X192055750Y-136668699D03*
X192055750Y-135668701D03*
X127666750Y-173768701D03*
X127666750Y-174768699D03*
X130143250Y-174768699D03*
X130143250Y-173768701D03*
D36*
X152715371Y-36002368D03*
X152255751Y-35542749D03*
X151796132Y-35083129D03*
X150452629Y-36426632D03*
X151371868Y-37345871D03*
D12*
X246729250Y-91853701D03*
X246729250Y-92853699D03*
X249205750Y-92853699D03*
X249205750Y-91853701D03*
D11*
X196339208Y-51183792D03*
X197612000Y-49911000D03*
D12*
X306355750Y-114761199D03*
X306355750Y-113761201D03*
X303879250Y-113761201D03*
X303879250Y-114761199D03*
X346741750Y-91853701D03*
X346741750Y-92853699D03*
X349218250Y-92853699D03*
X349218250Y-91853701D03*
X82423050Y-211868701D03*
X82423050Y-212868699D03*
X84899550Y-212868699D03*
X84899550Y-211868701D03*
X365791750Y-135668701D03*
X365791750Y-136668699D03*
X368268250Y-136668699D03*
X368268250Y-135668701D03*
X273018250Y-193818699D03*
X273018250Y-192818701D03*
X270541750Y-192818701D03*
X270541750Y-193818699D03*
X120618250Y-193818699D03*
X120618250Y-192818701D03*
X118141750Y-192818701D03*
X118141750Y-193818699D03*
X368268250Y-155718699D03*
X368268250Y-154718701D03*
X365791750Y-154718701D03*
X365791750Y-155718699D03*
X58610550Y-211868701D03*
X58610550Y-212868699D03*
X61087050Y-212868699D03*
X61087050Y-211868701D03*
X87280750Y-155718699D03*
X87280750Y-154718701D03*
X84804250Y-154718701D03*
X84804250Y-155718699D03*
D22*
X378333000Y-154327000D03*
X378333000Y-152527000D03*
D34*
X234442000Y-34613000D03*
X234442000Y-32613000D03*
D12*
X225393250Y-114761199D03*
X225393250Y-113761201D03*
X222916750Y-113761201D03*
X222916750Y-114761199D03*
X106330750Y-155718699D03*
X106330750Y-154718701D03*
X103854250Y-154718701D03*
X103854250Y-155718699D03*
X265779250Y-135668701D03*
X265779250Y-136668699D03*
X268255750Y-136668699D03*
X268255750Y-135668701D03*
X246729250Y-135668701D03*
X246729250Y-136668699D03*
X249205750Y-136668699D03*
X249205750Y-135668701D03*
D22*
X378333000Y-211836000D03*
X378333000Y-210036000D03*
D37*
X239863000Y-38836600D03*
X239863000Y-37886600D03*
X239863000Y-36936600D03*
X237363000Y-36936600D03*
X237363000Y-37886600D03*
X237363000Y-38836600D03*
D22*
X250825000Y-58169400D03*
X250825000Y-59969400D03*
D12*
X106235550Y-211868701D03*
X106235550Y-212868699D03*
X108712050Y-212868699D03*
X108712050Y-211868701D03*
X94329250Y-135668701D03*
X94329250Y-136668699D03*
X96805750Y-136668699D03*
X96805750Y-135668701D03*
X61087050Y-193818699D03*
X61087050Y-192818701D03*
X58610550Y-192818701D03*
X58610550Y-193818699D03*
X118141750Y-91853701D03*
X118141750Y-92853699D03*
X120618250Y-92853699D03*
X120618250Y-91853701D03*
X280066750Y-173768701D03*
X280066750Y-174768699D03*
X282543250Y-174768699D03*
X282543250Y-173768701D03*
X277780750Y-155718699D03*
X277780750Y-154718701D03*
X275304250Y-154718701D03*
X275304250Y-155718699D03*
D38*
X208515707Y-38767693D03*
X207101493Y-40181907D03*
D12*
X108616750Y-173768701D03*
X108616750Y-174768699D03*
X111093250Y-174768699D03*
X111093250Y-173768701D03*
X289591750Y-91853701D03*
X289591750Y-92853699D03*
X292068250Y-92853699D03*
X292068250Y-91853701D03*
D14*
X171921792Y-51387792D03*
X170649000Y-50115000D03*
D12*
X187293250Y-114761199D03*
X187293250Y-113761201D03*
X184816750Y-113761201D03*
X184816750Y-114761199D03*
X113379250Y-135668701D03*
X113379250Y-136668699D03*
X115855750Y-136668699D03*
X115855750Y-135668701D03*
D35*
X344551007Y-190009207D03*
X343136793Y-188594993D03*
D12*
X125380750Y-114761199D03*
X125380750Y-113761201D03*
X122904250Y-113761201D03*
X122904250Y-114761199D03*
X330168250Y-114761199D03*
X330168250Y-113761201D03*
X327691750Y-113761201D03*
X327691750Y-114761199D03*
D32*
X378333000Y-203692000D03*
X378333000Y-201692000D03*
D12*
X349218250Y-155718699D03*
X349218250Y-154718701D03*
X346741750Y-154718701D03*
X346741750Y-155718699D03*
D14*
X175615600Y-54432200D03*
X174342808Y-53159408D03*
D12*
X313404250Y-135668701D03*
X313404250Y-136668699D03*
X315880750Y-136668699D03*
X315880750Y-135668701D03*
D22*
X378333000Y-192416000D03*
X378333000Y-190616000D03*
D12*
X261016750Y-173768701D03*
X261016750Y-174768699D03*
X263493250Y-174768699D03*
X263493250Y-173768701D03*
D39*
X175641000Y-47625000D03*
X174368208Y-48897792D03*
D31*
X188087000Y-58801000D03*
X189359792Y-60073792D03*
D12*
X249205750Y-114761199D03*
X249205750Y-113761201D03*
X246729250Y-113761201D03*
X246729250Y-114761199D03*
X227679250Y-91853701D03*
X227679250Y-92853699D03*
X230155750Y-92853699D03*
X230155750Y-91853701D03*
X349218250Y-114761199D03*
X349218250Y-113761201D03*
X346741750Y-113761201D03*
X346741750Y-114761199D03*
X346741750Y-135668701D03*
X346741750Y-136668699D03*
X349218250Y-136668699D03*
X349218250Y-135668701D03*
D40*
X173386096Y-59477296D03*
X179396504Y-65487704D03*
D12*
X284829250Y-135668701D03*
X284829250Y-136668699D03*
X287305750Y-136668699D03*
X287305750Y-135668701D03*
X206343250Y-114761199D03*
X206343250Y-113761201D03*
X203866750Y-113761201D03*
X203866750Y-114761199D03*
D41*
X243938000Y-41402000D03*
X246888000Y-41402000D03*
D12*
X132429250Y-135668701D03*
X132429250Y-136668699D03*
X134905750Y-136668699D03*
X134905750Y-135668701D03*
X56229250Y-135668701D03*
X56229250Y-136668699D03*
X58705750Y-136668699D03*
X58705750Y-135668701D03*
D22*
X378333000Y-94542200D03*
X378333000Y-96342200D03*
D42*
X176837590Y-56207410D03*
X177495200Y-55549800D03*
D12*
X87280750Y-114761199D03*
X87280750Y-113761201D03*
X84804250Y-113761201D03*
X84804250Y-114761199D03*
X170529250Y-135668701D03*
X170529250Y-136668699D03*
X173005750Y-136668699D03*
X173005750Y-135668701D03*
X222916750Y-173768701D03*
X222916750Y-174768699D03*
X225393250Y-174768699D03*
X225393250Y-173768701D03*
X270541750Y-91853701D03*
X270541750Y-92853699D03*
X273018250Y-92853699D03*
X273018250Y-91853701D03*
X203866750Y-91853701D03*
X203866750Y-92853699D03*
X206343250Y-92853699D03*
X206343250Y-91853701D03*
D43*
X105283000Y-52674000D03*
X105283000Y-54674000D03*
X105283000Y-56674000D03*
X105283000Y-58674000D03*
D44*
X107533000Y-50274000D03*
X107533000Y-61074000D03*
D12*
X299116750Y-173768701D03*
X299116750Y-174768699D03*
X301593250Y-174768699D03*
X301593250Y-173768701D03*
M02*
