%TF.GenerationSoftware,KiCad,Pcbnew,7.0.8*%
%TF.CreationDate,2024-02-01T21:15:37-06:00*%
%TF.ProjectId,VesselV3,56657373-656c-4563-932e-6b696361645f,3.0*%
%TF.SameCoordinates,Original*%
%TF.FileFunction,Legend,Bot*%
%TF.FilePolarity,Positive*%
%FSLAX46Y46*%
G04 Gerber Fmt 4.6, Leading zero omitted, Abs format (unit mm)*
G04 Created by KiCad (PCBNEW 7.0.8) date 2024-02-01 21:15:37*
%MOMM*%
%LPD*%
G01*
G04 APERTURE LIST*
%ADD10C,0.200000*%
G04 APERTURE END LIST*
D10*
%TO.C,D56*%
X225272500Y-155675000D02*
X225272500Y-152115000D01*
X223672500Y-154815000D02*
X223672500Y-152115000D01*
%TO.C,D10*%
X253847500Y-92810000D02*
X253847500Y-89250000D01*
X252247500Y-91950000D02*
X252247500Y-89250000D01*
%TO.C,D83*%
X144310000Y-193804000D02*
X144310000Y-190244000D01*
X142710000Y-192944000D02*
X142710000Y-190244000D01*
%TO.C,D63*%
X372910000Y-155626000D02*
X372910000Y-152066000D01*
X371310000Y-154766000D02*
X371310000Y-152066000D01*
%TO.C,D88*%
X239560000Y-193804000D02*
X239560000Y-190244000D01*
X237960000Y-192944000D02*
X237960000Y-190244000D01*
%TO.C,D74*%
X268135000Y-174754000D02*
X268135000Y-171194000D01*
X266535000Y-173894000D02*
X266535000Y-171194000D01*
%TO.C,D34*%
X101447500Y-136576000D02*
X101447500Y-133016000D01*
X99847500Y-135716000D02*
X99847500Y-133016000D01*
%TO.C,D68*%
X153835000Y-174725000D02*
X153835000Y-171165000D01*
X152235000Y-173865000D02*
X152235000Y-171165000D01*
%TO.C,D18*%
X110972500Y-114732000D02*
X110972500Y-111172000D01*
X109372500Y-113872000D02*
X109372500Y-111172000D01*
%TO.C,D102*%
X349097500Y-212825000D02*
X349097500Y-209265000D01*
X347497500Y-211965000D02*
X347497500Y-209265000D01*
%TO.C,D11*%
X277660000Y-92810000D02*
X277660000Y-89250000D01*
X276060000Y-91950000D02*
X276060000Y-89250000D01*
%TO.C,D89*%
X258610000Y-193804000D02*
X258610000Y-190244000D01*
X257010000Y-192944000D02*
X257010000Y-190244000D01*
%TO.C,D94*%
X65728800Y-212854000D02*
X65728800Y-209294000D01*
X64128800Y-211994000D02*
X64128800Y-209294000D01*
%TO.C,D41*%
X234797500Y-136576000D02*
X234797500Y-133016000D01*
X233197500Y-135716000D02*
X233197500Y-133016000D01*
%TO.C,D30*%
X353860000Y-114654000D02*
X353860000Y-111094000D01*
X352260000Y-113794000D02*
X352260000Y-111094000D01*
%TO.C,D28*%
X310997500Y-114732000D02*
X310997500Y-111172000D01*
X309397500Y-113872000D02*
X309397500Y-111172000D01*
%TO.C,D24*%
X230035000Y-114732000D02*
X230035000Y-111172000D01*
X228435000Y-113872000D02*
X228435000Y-111172000D01*
%TO.C,D12*%
X296710000Y-92761000D02*
X296710000Y-89201000D01*
X295110000Y-91901000D02*
X295110000Y-89201000D01*
%TO.C,D52*%
X149072500Y-155675000D02*
X149072500Y-152115000D01*
X147472500Y-154815000D02*
X147472500Y-152115000D01*
%TO.C,D67*%
X134785000Y-174676000D02*
X134785000Y-171116000D01*
X133185000Y-173816000D02*
X133185000Y-171116000D01*
%TO.C,D76*%
X306235000Y-174676000D02*
X306235000Y-171116000D01*
X304635000Y-173816000D02*
X304635000Y-171116000D01*
%TO.C,D14*%
X353860000Y-92810000D02*
X353860000Y-89250000D01*
X352260000Y-91950000D02*
X352260000Y-89250000D01*
%TO.C,D92*%
X330047500Y-193726000D02*
X330047500Y-190166000D01*
X328447500Y-192866000D02*
X328447500Y-190166000D01*
%TO.C,D32*%
X63347500Y-136576000D02*
X63347500Y-133016000D01*
X61747500Y-135716000D02*
X61747500Y-133016000D01*
%TO.C,D81*%
X106210000Y-193775000D02*
X106210000Y-190215000D01*
X104610000Y-192915000D02*
X104610000Y-190215000D01*
%TO.C,D100*%
X310997500Y-212854000D02*
X310997500Y-209294000D01*
X309397500Y-211994000D02*
X309397500Y-209294000D01*
%TO.C,D79*%
X65728800Y-193726000D02*
X65728800Y-190166000D01*
X64128800Y-192866000D02*
X64128800Y-190166000D01*
%TO.C,D40*%
X215747500Y-136654000D02*
X215747500Y-133094000D01*
X214147500Y-135794000D02*
X214147500Y-133094000D01*
%TO.C,D69*%
X172885000Y-174676000D02*
X172885000Y-171116000D01*
X171285000Y-173816000D02*
X171285000Y-171116000D01*
%TO.C,D38*%
X177647500Y-136576000D02*
X177647500Y-133016000D01*
X176047500Y-135716000D02*
X176047500Y-133016000D01*
%TO.C,D51*%
X130022500Y-155704000D02*
X130022500Y-152144000D01*
X128422500Y-154844000D02*
X128422500Y-152144000D01*
%TO.C,D49*%
X91922500Y-155675000D02*
X91922500Y-152115000D01*
X90322500Y-154815000D02*
X90322500Y-152115000D01*
%TO.C,D26*%
X272897500Y-114654000D02*
X272897500Y-111094000D01*
X271297500Y-113794000D02*
X271297500Y-111094000D01*
%TO.C,D85*%
X182410000Y-193726000D02*
X182410000Y-190166000D01*
X180810000Y-192866000D02*
X180810000Y-190166000D01*
%TO.C,D95*%
X89541300Y-212854000D02*
X89541300Y-209294000D01*
X87941300Y-211994000D02*
X87941300Y-209294000D01*
%TO.C,D84*%
X163360000Y-193804000D02*
X163360000Y-190244000D01*
X161760000Y-192944000D02*
X161760000Y-190244000D01*
%TO.C,D62*%
X353860000Y-155675000D02*
X353860000Y-152115000D01*
X352260000Y-154815000D02*
X352260000Y-152115000D01*
%TO.C,D61*%
X327666300Y-165151000D02*
X327666300Y-161591000D01*
X326066300Y-164291000D02*
X326066300Y-161591000D01*
%TO.C,D87*%
X220510000Y-193804000D02*
X220510000Y-190244000D01*
X218910000Y-192944000D02*
X218910000Y-190244000D01*
%TO.C,D21*%
X172885000Y-114654000D02*
X172885000Y-111094000D01*
X171285000Y-113794000D02*
X171285000Y-111094000D01*
%TO.C,D101*%
X330047500Y-212854000D02*
X330047500Y-209294000D01*
X328447500Y-211994000D02*
X328447500Y-209294000D01*
%TO.C,D55*%
X206222500Y-155704000D02*
X206222500Y-152144000D01*
X204622500Y-154844000D02*
X204622500Y-152144000D01*
%TO.C,D59*%
X282422500Y-155704000D02*
X282422500Y-152144000D01*
X280822500Y-154844000D02*
X280822500Y-152144000D01*
%TO.C,D54*%
X187172500Y-155704000D02*
X187172500Y-152144000D01*
X185572500Y-154844000D02*
X185572500Y-152144000D01*
%TO.C,D73*%
X249085000Y-174725000D02*
X249085000Y-171165000D01*
X247485000Y-173865000D02*
X247485000Y-171165000D01*
%TO.C,D93*%
X372910000Y-193775000D02*
X372910000Y-190215000D01*
X371310000Y-192915000D02*
X371310000Y-190215000D01*
%TO.C,D48*%
X68110000Y-155626000D02*
X68110000Y-152066000D01*
X66510000Y-154766000D02*
X66510000Y-152066000D01*
%TO.C,D53*%
X168122500Y-155675000D02*
X168122500Y-152115000D01*
X166522500Y-154815000D02*
X166522500Y-152115000D01*
%TO.C,D77*%
X353860000Y-174725000D02*
X353860000Y-171165000D01*
X352260000Y-173865000D02*
X352260000Y-171165000D01*
%TO.C,D9*%
X234797500Y-92839000D02*
X234797500Y-89279000D01*
X233197500Y-91979000D02*
X233197500Y-89279000D01*
%TO.C,D35*%
X120497500Y-136625000D02*
X120497500Y-133065000D01*
X118897500Y-135765000D02*
X118897500Y-133065000D01*
%TO.C,D16*%
X63347500Y-114683000D02*
X63347500Y-111123000D01*
X61747500Y-113823000D02*
X61747500Y-111123000D01*
%TO.C,D86*%
X201460000Y-193726000D02*
X201460000Y-190166000D01*
X199860000Y-192866000D02*
X199860000Y-190166000D01*
%TO.C,D45*%
X320522500Y-136625000D02*
X320522500Y-133065000D01*
X318922500Y-135765000D02*
X318922500Y-133065000D01*
%TO.C,D39*%
X196697500Y-136576000D02*
X196697500Y-133016000D01*
X195097500Y-135716000D02*
X195097500Y-133016000D01*
%TO.C,D80*%
X87160000Y-193726000D02*
X87160000Y-190166000D01*
X85560000Y-192866000D02*
X85560000Y-190166000D01*
%TO.C,D57*%
X244322500Y-155626000D02*
X244322500Y-152066000D01*
X242722500Y-154766000D02*
X242722500Y-152066000D01*
%TO.C,D47*%
X372910000Y-136654000D02*
X372910000Y-133094000D01*
X371310000Y-135794000D02*
X371310000Y-133094000D01*
%TO.C,D19*%
X130022500Y-114654000D02*
X130022500Y-111094000D01*
X128422500Y-113794000D02*
X128422500Y-111094000D01*
%TO.C,D98*%
X256228800Y-212776000D02*
X256228800Y-209216000D01*
X254628800Y-211916000D02*
X254628800Y-209216000D01*
%TO.C,D82*%
X125260000Y-193726000D02*
X125260000Y-190166000D01*
X123660000Y-192866000D02*
X123660000Y-190166000D01*
%TO.C,D15*%
X372910000Y-92839000D02*
X372910000Y-89279000D01*
X371310000Y-91979000D02*
X371310000Y-89279000D01*
%TO.C,D37*%
X158597500Y-136625000D02*
X158597500Y-133065000D01*
X156997500Y-135765000D02*
X156997500Y-133065000D01*
%TO.C,D71*%
X210985000Y-174754000D02*
X210985000Y-171194000D01*
X209385000Y-173894000D02*
X209385000Y-171194000D01*
%TO.C,D13*%
X334810000Y-92839000D02*
X334810000Y-89279000D01*
X333210000Y-91979000D02*
X333210000Y-89279000D01*
%TO.C,D5*%
X149072500Y-92810000D02*
X149072500Y-89250000D01*
X147472500Y-91950000D02*
X147472500Y-89250000D01*
%TO.C,D64*%
X70491300Y-174676000D02*
X70491300Y-171116000D01*
X68891300Y-173816000D02*
X68891300Y-171116000D01*
%TO.C,D44*%
X291947500Y-136576000D02*
X291947500Y-133016000D01*
X290347500Y-135716000D02*
X290347500Y-133016000D01*
%TO.C,D22*%
X191935000Y-114683000D02*
X191935000Y-111123000D01*
X190335000Y-113823000D02*
X190335000Y-111123000D01*
%TO.C,D90*%
X277660000Y-193726000D02*
X277660000Y-190166000D01*
X276060000Y-192866000D02*
X276060000Y-190166000D01*
%TO.C,D33*%
X82397500Y-136654000D02*
X82397500Y-133094000D01*
X80797500Y-135794000D02*
X80797500Y-133094000D01*
%TO.C,D20*%
X149072500Y-114683000D02*
X149072500Y-111123000D01*
X147472500Y-113823000D02*
X147472500Y-111123000D01*
%TO.C,D2*%
X82397500Y-92839000D02*
X82397500Y-89279000D01*
X80797500Y-91979000D02*
X80797500Y-89279000D01*
%TO.C,D42*%
X253847500Y-136625000D02*
X253847500Y-133065000D01*
X252247500Y-135765000D02*
X252247500Y-133065000D01*
%TO.C,D97*%
X184791300Y-212776000D02*
X184791300Y-209216000D01*
X183191300Y-211916000D02*
X183191300Y-209216000D01*
%TO.C,D4*%
X125260000Y-92810000D02*
X125260000Y-89250000D01*
X123660000Y-91950000D02*
X123660000Y-89250000D01*
%TO.C,D91*%
X303853800Y-193726000D02*
X303853800Y-190166000D01*
X302253800Y-192866000D02*
X302253800Y-190166000D01*
%TO.C,D70*%
X191935000Y-174754000D02*
X191935000Y-171194000D01*
X190335000Y-173894000D02*
X190335000Y-171194000D01*
%TO.C,D31*%
X372910000Y-114654000D02*
X372910000Y-111094000D01*
X371310000Y-113794000D02*
X371310000Y-111094000D01*
%TO.C,D23*%
X210985000Y-114732000D02*
X210985000Y-111172000D01*
X209385000Y-113872000D02*
X209385000Y-111172000D01*
%TO.C,D7*%
X191935000Y-92839000D02*
X191935000Y-89279000D01*
X190335000Y-91979000D02*
X190335000Y-89279000D01*
%TO.C,D17*%
X91922500Y-114732000D02*
X91922500Y-111172000D01*
X90322500Y-113872000D02*
X90322500Y-111172000D01*
%TO.C,D60*%
X301472500Y-155704000D02*
X301472500Y-152144000D01*
X299872500Y-154844000D02*
X299872500Y-152144000D01*
%TO.C,D36*%
X139547500Y-136654000D02*
X139547500Y-133094000D01*
X137947500Y-135794000D02*
X137947500Y-133094000D01*
%TO.C,D6*%
X168122500Y-92839000D02*
X168122500Y-89279000D01*
X166522500Y-91979000D02*
X166522500Y-89279000D01*
%TO.C,D43*%
X272897500Y-136625000D02*
X272897500Y-133065000D01*
X271297500Y-135765000D02*
X271297500Y-133065000D01*
%TO.C,D99*%
X280041300Y-212776000D02*
X280041300Y-209216000D01*
X278441300Y-211916000D02*
X278441300Y-209216000D01*
%TO.C,D29*%
X334810000Y-114732000D02*
X334810000Y-111172000D01*
X333210000Y-113872000D02*
X333210000Y-111172000D01*
%TO.C,D65*%
X96685000Y-174676000D02*
X96685000Y-171116000D01*
X95085000Y-173816000D02*
X95085000Y-171116000D01*
%TO.C,D72*%
X230035000Y-174803000D02*
X230035000Y-171243000D01*
X228435000Y-173943000D02*
X228435000Y-171243000D01*
%TO.C,D27*%
X291947500Y-114683000D02*
X291947500Y-111123000D01*
X290347500Y-113823000D02*
X290347500Y-111123000D01*
%TO.C,D3*%
X106210000Y-92761000D02*
X106210000Y-89201000D01*
X104610000Y-91901000D02*
X104610000Y-89201000D01*
%TO.C,D46*%
X353860000Y-136576000D02*
X353860000Y-133016000D01*
X352260000Y-135716000D02*
X352260000Y-133016000D01*
%TO.C,D66*%
X115735000Y-174725000D02*
X115735000Y-171165000D01*
X114135000Y-173865000D02*
X114135000Y-171165000D01*
%TO.C,D75*%
X287185000Y-174754000D02*
X287185000Y-171194000D01*
X285585000Y-173894000D02*
X285585000Y-171194000D01*
%TO.C,D96*%
X113353800Y-212776000D02*
X113353800Y-209216000D01*
X111753800Y-211916000D02*
X111753800Y-209216000D01*
%TO.C,D78*%
X372910000Y-174676000D02*
X372910000Y-171116000D01*
X371310000Y-173816000D02*
X371310000Y-171116000D01*
%TO.C,D25*%
X253847500Y-114683000D02*
X253847500Y-111123000D01*
X252247500Y-113823000D02*
X252247500Y-111123000D01*
%TO.C,D1*%
X63347500Y-92810000D02*
X63347500Y-89250000D01*
X61747500Y-91950000D02*
X61747500Y-89250000D01*
%TO.C,D58*%
X263372500Y-155626000D02*
X263372500Y-152066000D01*
X261772500Y-154766000D02*
X261772500Y-152066000D01*
%TO.C,D8*%
X210985000Y-92761000D02*
X210985000Y-89201000D01*
X209385000Y-91901000D02*
X209385000Y-89201000D01*
%TO.C,D50*%
X110972500Y-155675000D02*
X110972500Y-152115000D01*
X109372500Y-154815000D02*
X109372500Y-152115000D01*
%TD*%
M02*
