M48
; DRILL file {KiCad 7.0.8} date Sun Feb  4 22:59:58 2024
; FORMAT={-:-/ absolute / metric / decimal}
; #@! TF.CreationDate,2024-02-04T22:59:58-06:00
; #@! TF.GenerationSoftware,Kicad,Pcbnew,7.0.8
; #@! TF.FileFunction,Plated,1,2,PTH
FMAT,2
METRIC
; #@! TA.AperFunction,Plated,PTH,ViaDrill
T1C0.400
; #@! TA.AperFunction,Plated,PTH,ComponentDrill
T2C1.000
; #@! TA.AperFunction,Plated,PTH,ComponentDrill
T3C1.500
; #@! TA.AperFunction,Plated,PTH,ComponentDrill
T4C1.650
; #@! TA.AperFunction,Plated,PTH,ComponentDrill
T5C1.710
; #@! TA.AperFunction,Plated,PTH,ComponentDrill
T6C3.280
%
G90
G05
T1
X71.401Y-176.544
X71.653Y-111.92
X81.661Y-94.869
X84.021Y-138.208
X92.453Y-111.92
X96.28Y-176.544
X96.393Y-155.418
X98.679Y-155.575
X103.805Y-94.173
X112.027Y-111.92
X113.868Y-58.674
X118.643Y-54.966
X119.711Y-138.208
X122.392Y-94.175
X127.529Y-153.615
X137.979Y-42.015
X137.979Y-44.615
X138.774Y-138.615
X149.428Y-40.767
X151.279Y-39.776
X155.677Y-106.426
X155.702Y-40.776
X155.702Y-45.125
X158.115Y-29.845
X158.115Y-35.941
X160.629Y-40.225
X161.509Y-136.822
X162.179Y-46.629
X162.181Y-143.325
X163.889Y-135.892
X164.19Y-190.998
X167.959Y-50.265
X168.783Y-91.352
X171.019Y-45.125
X172.079Y-112.765
X173.356Y-49.598
X174.179Y-40.245
X174.587Y-47.377
X175.286Y-51.995
X176.529Y-51.115
X177.19Y-39.599
X178.181Y-41.783
X178.761Y-42.727
X179.419Y-55.985
X179.529Y-50.363
X181.991Y-41.021
X182.265Y-59.115
X182.379Y-92.154
X182.956Y-41.885
X183.237Y-191.062
X183.957Y-58.539
X184.063Y-55.53
X184.371Y-47.025
X184.968Y-46.205
X185.103Y-42.468
X186.534Y-54.12
X186.61Y-39.461
X186.91Y-50.15
X187.029Y-47.724
X187.627Y-48.765
X187.852Y-152.596
X188.595Y-49.421
X188.614Y-91.372
X190.448Y-55.384
X190.932Y-44.593
X191.129Y-175.516
X191.135Y-112.209
X192.928Y-56.875
X193.319Y-45.339
X194.081Y-56.896
X194.451Y-166.529
X194.517Y-137.981
X196.792Y-46.032
X197.993Y-46.863
X197.994Y-48.906
X199.604Y-128.365
X200.587Y-76.115
X201.629Y-91.365
X203.61Y-112.185
X203.928Y-152.596
X205.003Y-45.847
X205.232Y-40.183
X210.179Y-176.544
X210.439Y-35.941
X213.081Y-43.79
X214.945Y-139.661
X222.529Y-75.615
X228.116Y-79.028
X229.191Y-176.544
X229.235Y-78.105
X231.855Y-59.761
X231.859Y-56.005
X232.129Y-91.352
X238.029Y-34.115
X238.506Y-40.64
X240.393Y-52.775
X241.529Y-152.926
X241.63Y-36.424
X242.861Y-36.283
X243.954Y-38.965
X244.029Y-92.115
X246.519Y-53.055
X249.225Y-42.697
X249.479Y-48.336
X250.854Y-176.265
X253.034Y-137.721
X254.44Y-112.434
X257.937Y-92.075
X265.529Y-153.696
X267.919Y-92.075
X269.901Y-176.277
X270.425Y-137.721
X277.479Y-178.315
X282.067Y-36.373
X282.206Y-133.512
X282.931Y-89.332
X286.131Y-36.373
X286.131Y-40.665
X289.429Y-176.277
X289.583Y-119.328
X290.098Y-47.487
X291.867Y-50.564
X292.286Y-58.869
X293.551Y-51.318
X297.367Y-60.687
X298.529Y-153.696
X298.696Y-59.356
X298.979Y-91.935
X299.653Y-58.785
X301.654Y-63.598
X305.932Y-93.46
X310.167Y-119.328
X322.327Y-133.51
X326.012Y-91.918
X334.854Y-179.609
X336.904Y-180.933
X337.229Y-119.315
X341.122Y-190.5
X341.122Y-197.358
X349.033Y-192.212
X349.529Y-213.615
X350.029Y-189.827
X350.464Y-176.277
X353.02Y-115.789
X353.112Y-214.399
X354.703Y-152.575
X355.192Y-133.513
X357.171Y-190.782
X363.026Y-78.473
X364.108Y-115.789
X369.579Y-156.565
X369.858Y-192.394
X370.029Y-115.115
X370.029Y-135.215
X370.029Y-174.115
X370.546Y-91.615
X374.65Y-75.742
X375.024Y-112.306
X375.029Y-152.615
X375.626Y-192.615
X376.316Y-116.115
X377.173Y-155.956
X378.333Y-195.815
X378.333Y-205.74
X381.381Y-205.74
T2
X359.896Y-205.115
X359.896Y-207.615
X359.896Y-210.115
X374.396Y-205.115
X374.396Y-210.115
T3
X53.657Y-84.614
X53.657Y-106.521
X53.657Y-128.429
X56.039Y-185.579
X56.039Y-204.629
X58.42Y-147.479
X60.008Y-82.074
X60.008Y-103.981
X60.008Y-125.889
X60.801Y-166.529
X62.389Y-183.039
X62.389Y-202.089
X64.77Y-144.939
X67.151Y-163.989
X72.707Y-84.614
X72.707Y-128.429
X77.47Y-185.579
X79.057Y-82.074
X79.057Y-125.889
X79.851Y-204.629
X82.233Y-106.521
X82.233Y-147.479
X83.82Y-183.039
X86.201Y-202.089
X86.995Y-166.529
X88.582Y-103.981
X88.582Y-144.939
X91.757Y-128.429
X93.345Y-163.989
X96.52Y-84.614
X96.52Y-185.579
X98.108Y-125.889
X101.282Y-106.521
X101.282Y-147.479
X102.87Y-82.074
X102.87Y-183.039
X103.664Y-204.629
X106.045Y-166.529
X107.632Y-103.981
X107.632Y-144.939
X110.014Y-202.089
X110.807Y-128.429
X112.395Y-163.989
X115.57Y-84.614
X115.57Y-185.579
X117.157Y-125.889
X120.332Y-106.521
X120.332Y-147.479
X121.92Y-82.074
X121.92Y-183.039
X125.095Y-166.529
X126.682Y-103.981
X126.682Y-144.939
X129.857Y-128.429
X131.445Y-163.989
X134.62Y-185.579
X136.207Y-125.889
X139.382Y-84.614
X139.382Y-106.521
X139.382Y-147.479
X140.97Y-183.039
X144.145Y-166.529
X145.732Y-82.074
X145.732Y-103.981
X145.732Y-144.939
X148.907Y-128.429
X150.495Y-163.989
X153.67Y-185.579
X155.257Y-125.889
X158.433Y-84.614
X158.433Y-147.479
X160.02Y-183.039
X163.195Y-106.521
X163.195Y-166.529
X164.782Y-82.074
X164.782Y-144.939
X167.957Y-128.429
X169.545Y-103.981
X169.545Y-163.989
X172.72Y-185.579
X174.308Y-125.889
X175.101Y-204.629
X177.482Y-147.479
X179.07Y-183.039
X181.451Y-202.089
X182.245Y-84.614
X182.245Y-106.521
X182.245Y-166.529
X183.832Y-144.939
X187.007Y-128.429
X188.595Y-82.074
X188.595Y-103.981
X188.595Y-163.989
X191.77Y-185.579
X193.357Y-125.889
X196.532Y-147.479
X198.12Y-183.039
X201.295Y-84.614
X201.295Y-106.521
X201.295Y-166.529
X202.882Y-144.939
X206.058Y-128.429
X207.645Y-82.074
X207.645Y-103.981
X207.645Y-163.989
X210.82Y-185.579
X212.407Y-125.889
X215.582Y-147.479
X217.17Y-183.039
X220.345Y-106.521
X220.345Y-166.529
X221.932Y-144.939
X225.107Y-84.614
X225.107Y-128.429
X226.695Y-103.981
X226.695Y-163.989
X229.87Y-185.579
X231.457Y-82.074
X231.457Y-125.889
X234.632Y-147.479
X236.22Y-183.039
X239.395Y-166.529
X240.982Y-144.939
X244.157Y-84.614
X244.157Y-106.521
X244.157Y-128.429
X245.745Y-163.989
X246.539Y-204.629
X248.92Y-185.579
X250.507Y-82.074
X250.507Y-103.981
X250.507Y-125.889
X252.889Y-202.089
X253.682Y-147.479
X255.27Y-183.039
X258.445Y-166.529
X260.032Y-144.939
X263.207Y-106.521
X263.207Y-128.429
X264.795Y-163.989
X267.97Y-84.614
X267.97Y-185.579
X269.558Y-103.981
X269.558Y-125.889
X270.351Y-204.629
X272.733Y-147.479
X274.32Y-82.074
X274.32Y-183.039
X276.701Y-202.089
X277.495Y-166.529
X279.082Y-144.939
X282.257Y-106.521
X282.257Y-128.429
X283.845Y-163.989
X287.02Y-84.614
X288.607Y-103.981
X288.607Y-125.889
X291.782Y-147.479
X293.37Y-82.074
X294.164Y-185.579
X296.545Y-166.529
X298.132Y-144.939
X300.514Y-183.039
X301.308Y-106.521
X301.308Y-204.629
X302.895Y-163.989
X307.657Y-103.981
X307.657Y-202.089
X310.832Y-128.429
X317.183Y-125.889
X317.976Y-157.004
X320.357Y-185.579
X320.357Y-204.629
X324.326Y-154.464
X325.12Y-84.614
X325.12Y-106.521
X326.707Y-183.039
X326.707Y-202.089
X331.47Y-82.074
X331.47Y-103.981
X339.407Y-204.629
X344.17Y-84.614
X344.17Y-106.521
X344.17Y-128.429
X344.17Y-147.479
X344.17Y-166.529
X345.757Y-202.089
X350.52Y-82.074
X350.52Y-103.981
X350.52Y-125.889
X350.52Y-144.939
X350.52Y-163.989
X363.22Y-84.614
X363.22Y-106.521
X363.22Y-128.429
X363.22Y-147.479
X363.22Y-166.529
X363.22Y-185.579
X369.57Y-82.074
X369.57Y-103.981
X369.57Y-125.889
X369.57Y-144.939
X369.57Y-163.989
X369.57Y-183.039
T4
X375.651Y-58.242
X375.651Y-62.992
X375.651Y-67.742
T5
X240.97Y-29.083
X240.97Y-33.583
X250.19Y-29.083
X250.19Y-33.583
T6
X367.396Y-202.015
X367.396Y-213.215
T0
M30
