%TF.GenerationSoftware,KiCad,Pcbnew,7.0.8*%
%TF.CreationDate,2024-02-05T18:29:49-06:00*%
%TF.ProjectId,VesselV3,56657373-656c-4563-932e-6b696361645f,3.0*%
%TF.SameCoordinates,Original*%
%TF.FileFunction,Paste,Bot*%
%TF.FilePolarity,Positive*%
%FSLAX46Y46*%
G04 Gerber Fmt 4.6, Leading zero omitted, Abs format (unit mm)*
G04 Created by KiCad (PCBNEW 7.0.8) date 2024-02-05 18:29:49*
%MOMM*%
%LPD*%
G01*
G04 APERTURE LIST*
%ADD10R,0.740000X1.020000*%
G04 APERTURE END LIST*
D10*
%TO.C,D56*%
X224472500Y-155165000D03*
X224472500Y-151765000D03*
%TD*%
%TO.C,D10*%
X253047500Y-92300000D03*
X253047500Y-88900000D03*
%TD*%
%TO.C,D83*%
X143510000Y-193294000D03*
X143510000Y-189894000D03*
%TD*%
%TO.C,D63*%
X372110000Y-155116000D03*
X372110000Y-151716000D03*
%TD*%
%TO.C,D88*%
X238760000Y-193294000D03*
X238760000Y-189894000D03*
%TD*%
%TO.C,D74*%
X267335000Y-174244000D03*
X267335000Y-170844000D03*
%TD*%
%TO.C,D34*%
X100647500Y-136066000D03*
X100647500Y-132666000D03*
%TD*%
%TO.C,D68*%
X153035000Y-174215000D03*
X153035000Y-170815000D03*
%TD*%
%TO.C,D18*%
X110172500Y-114222000D03*
X110172500Y-110822000D03*
%TD*%
%TO.C,D102*%
X348297500Y-212315000D03*
X348297500Y-208915000D03*
%TD*%
%TO.C,D11*%
X276860000Y-92300000D03*
X276860000Y-88900000D03*
%TD*%
%TO.C,D89*%
X257810000Y-193294000D03*
X257810000Y-189894000D03*
%TD*%
%TO.C,D94*%
X64928800Y-212344000D03*
X64928800Y-208944000D03*
%TD*%
%TO.C,D41*%
X233997500Y-136066000D03*
X233997500Y-132666000D03*
%TD*%
%TO.C,D30*%
X353060000Y-114144000D03*
X353060000Y-110744000D03*
%TD*%
%TO.C,D28*%
X310197500Y-114222000D03*
X310197500Y-110822000D03*
%TD*%
%TO.C,D24*%
X229235000Y-114222000D03*
X229235000Y-110822000D03*
%TD*%
%TO.C,D12*%
X295910000Y-92251000D03*
X295910000Y-88851000D03*
%TD*%
%TO.C,D52*%
X148272500Y-155165000D03*
X148272500Y-151765000D03*
%TD*%
%TO.C,D67*%
X133985000Y-174166000D03*
X133985000Y-170766000D03*
%TD*%
%TO.C,D76*%
X305435000Y-174166000D03*
X305435000Y-170766000D03*
%TD*%
%TO.C,D14*%
X353060000Y-92300000D03*
X353060000Y-88900000D03*
%TD*%
%TO.C,D92*%
X329247500Y-193216000D03*
X329247500Y-189816000D03*
%TD*%
%TO.C,D32*%
X62547500Y-136066000D03*
X62547500Y-132666000D03*
%TD*%
%TO.C,D81*%
X105410000Y-193265000D03*
X105410000Y-189865000D03*
%TD*%
%TO.C,D100*%
X310197500Y-212344000D03*
X310197500Y-208944000D03*
%TD*%
%TO.C,D79*%
X64928800Y-193216000D03*
X64928800Y-189816000D03*
%TD*%
%TO.C,D40*%
X214947500Y-136144000D03*
X214947500Y-132744000D03*
%TD*%
%TO.C,D69*%
X172085000Y-174166000D03*
X172085000Y-170766000D03*
%TD*%
%TO.C,D38*%
X176847500Y-136066000D03*
X176847500Y-132666000D03*
%TD*%
%TO.C,D51*%
X129222500Y-155194000D03*
X129222500Y-151794000D03*
%TD*%
%TO.C,D49*%
X91122500Y-155165000D03*
X91122500Y-151765000D03*
%TD*%
%TO.C,D26*%
X272097500Y-114144000D03*
X272097500Y-110744000D03*
%TD*%
%TO.C,D85*%
X181610000Y-193216000D03*
X181610000Y-189816000D03*
%TD*%
%TO.C,D95*%
X88741300Y-212344000D03*
X88741300Y-208944000D03*
%TD*%
%TO.C,D84*%
X162560000Y-193294000D03*
X162560000Y-189894000D03*
%TD*%
%TO.C,D62*%
X353060000Y-155165000D03*
X353060000Y-151765000D03*
%TD*%
%TO.C,D61*%
X326866300Y-164641000D03*
X326866300Y-161241000D03*
%TD*%
%TO.C,D87*%
X219710000Y-193294000D03*
X219710000Y-189894000D03*
%TD*%
%TO.C,D21*%
X172085000Y-114144000D03*
X172085000Y-110744000D03*
%TD*%
%TO.C,D101*%
X329247500Y-212344000D03*
X329247500Y-208944000D03*
%TD*%
%TO.C,D55*%
X205422500Y-155194000D03*
X205422500Y-151794000D03*
%TD*%
%TO.C,D59*%
X281622500Y-155194000D03*
X281622500Y-151794000D03*
%TD*%
%TO.C,D54*%
X186372500Y-155194000D03*
X186372500Y-151794000D03*
%TD*%
%TO.C,D73*%
X248285000Y-174215000D03*
X248285000Y-170815000D03*
%TD*%
%TO.C,D93*%
X372110000Y-193265000D03*
X372110000Y-189865000D03*
%TD*%
%TO.C,D48*%
X67310000Y-155116000D03*
X67310000Y-151716000D03*
%TD*%
%TO.C,D53*%
X167322500Y-155165000D03*
X167322500Y-151765000D03*
%TD*%
%TO.C,D77*%
X353060000Y-174215000D03*
X353060000Y-170815000D03*
%TD*%
%TO.C,D9*%
X233997500Y-92329000D03*
X233997500Y-88929000D03*
%TD*%
%TO.C,D35*%
X119697500Y-136115000D03*
X119697500Y-132715000D03*
%TD*%
%TO.C,D16*%
X62547500Y-114173000D03*
X62547500Y-110773000D03*
%TD*%
%TO.C,D86*%
X200660000Y-193216000D03*
X200660000Y-189816000D03*
%TD*%
%TO.C,D45*%
X319722500Y-136115000D03*
X319722500Y-132715000D03*
%TD*%
%TO.C,D39*%
X195897500Y-136066000D03*
X195897500Y-132666000D03*
%TD*%
%TO.C,D80*%
X86360000Y-193216000D03*
X86360000Y-189816000D03*
%TD*%
%TO.C,D57*%
X243522500Y-155116000D03*
X243522500Y-151716000D03*
%TD*%
%TO.C,D47*%
X372110000Y-136144000D03*
X372110000Y-132744000D03*
%TD*%
%TO.C,D19*%
X129222500Y-114144000D03*
X129222500Y-110744000D03*
%TD*%
%TO.C,D98*%
X255428800Y-212266000D03*
X255428800Y-208866000D03*
%TD*%
%TO.C,D82*%
X124460000Y-193216000D03*
X124460000Y-189816000D03*
%TD*%
%TO.C,D15*%
X372110000Y-92329000D03*
X372110000Y-88929000D03*
%TD*%
%TO.C,D37*%
X157797500Y-136115000D03*
X157797500Y-132715000D03*
%TD*%
%TO.C,D71*%
X210185000Y-174244000D03*
X210185000Y-170844000D03*
%TD*%
%TO.C,D13*%
X334010000Y-92329000D03*
X334010000Y-88929000D03*
%TD*%
%TO.C,D5*%
X148272500Y-92300000D03*
X148272500Y-88900000D03*
%TD*%
%TO.C,D64*%
X69691300Y-174166000D03*
X69691300Y-170766000D03*
%TD*%
%TO.C,D44*%
X291147500Y-136066000D03*
X291147500Y-132666000D03*
%TD*%
%TO.C,D22*%
X191135000Y-114173000D03*
X191135000Y-110773000D03*
%TD*%
%TO.C,D90*%
X276860000Y-193216000D03*
X276860000Y-189816000D03*
%TD*%
%TO.C,D33*%
X81597500Y-136144000D03*
X81597500Y-132744000D03*
%TD*%
%TO.C,D20*%
X148272500Y-114173000D03*
X148272500Y-110773000D03*
%TD*%
%TO.C,D2*%
X81597500Y-92329000D03*
X81597500Y-88929000D03*
%TD*%
%TO.C,D42*%
X253047500Y-136115000D03*
X253047500Y-132715000D03*
%TD*%
%TO.C,D97*%
X183991300Y-212266000D03*
X183991300Y-208866000D03*
%TD*%
%TO.C,D4*%
X124460000Y-92300000D03*
X124460000Y-88900000D03*
%TD*%
%TO.C,D91*%
X303053800Y-193216000D03*
X303053800Y-189816000D03*
%TD*%
%TO.C,D70*%
X191135000Y-174244000D03*
X191135000Y-170844000D03*
%TD*%
%TO.C,D31*%
X372110000Y-114144000D03*
X372110000Y-110744000D03*
%TD*%
%TO.C,D23*%
X210185000Y-114222000D03*
X210185000Y-110822000D03*
%TD*%
%TO.C,D7*%
X191135000Y-92329000D03*
X191135000Y-88929000D03*
%TD*%
%TO.C,D17*%
X91122500Y-114222000D03*
X91122500Y-110822000D03*
%TD*%
%TO.C,D60*%
X300672500Y-155194000D03*
X300672500Y-151794000D03*
%TD*%
%TO.C,D36*%
X138747500Y-136144000D03*
X138747500Y-132744000D03*
%TD*%
%TO.C,D6*%
X167322500Y-92329000D03*
X167322500Y-88929000D03*
%TD*%
%TO.C,D43*%
X272097500Y-136115000D03*
X272097500Y-132715000D03*
%TD*%
%TO.C,D99*%
X279241300Y-212266000D03*
X279241300Y-208866000D03*
%TD*%
%TO.C,D29*%
X334010000Y-114222000D03*
X334010000Y-110822000D03*
%TD*%
%TO.C,D65*%
X95885000Y-174166000D03*
X95885000Y-170766000D03*
%TD*%
%TO.C,D72*%
X229235000Y-174293000D03*
X229235000Y-170893000D03*
%TD*%
%TO.C,D27*%
X291147500Y-114173000D03*
X291147500Y-110773000D03*
%TD*%
%TO.C,D3*%
X105410000Y-92251000D03*
X105410000Y-88851000D03*
%TD*%
%TO.C,D46*%
X353060000Y-136066000D03*
X353060000Y-132666000D03*
%TD*%
%TO.C,D66*%
X114935000Y-174215000D03*
X114935000Y-170815000D03*
%TD*%
%TO.C,D75*%
X286385000Y-174244000D03*
X286385000Y-170844000D03*
%TD*%
%TO.C,D96*%
X112553800Y-212266000D03*
X112553800Y-208866000D03*
%TD*%
%TO.C,D78*%
X372110000Y-174166000D03*
X372110000Y-170766000D03*
%TD*%
%TO.C,D25*%
X253047500Y-114173000D03*
X253047500Y-110773000D03*
%TD*%
%TO.C,D1*%
X62547500Y-92300000D03*
X62547500Y-88900000D03*
%TD*%
%TO.C,D58*%
X262572500Y-155116000D03*
X262572500Y-151716000D03*
%TD*%
%TO.C,D8*%
X210185000Y-92251000D03*
X210185000Y-88851000D03*
%TD*%
%TO.C,D50*%
X110172500Y-155165000D03*
X110172500Y-151765000D03*
%TD*%
M02*
