%TF.GenerationSoftware,KiCad,Pcbnew,7.0.8*%
%TF.CreationDate,2024-02-01T21:15:38-06:00*%
%TF.ProjectId,VesselV3,56657373-656c-4563-932e-6b696361645f,3.0*%
%TF.SameCoordinates,Original*%
%TF.FileFunction,Soldermask,Top*%
%TF.FilePolarity,Negative*%
%FSLAX46Y46*%
G04 Gerber Fmt 4.6, Leading zero omitted, Abs format (unit mm)*
G04 Created by KiCad (PCBNEW 7.0.8) date 2024-02-01 21:15:38*
%MOMM*%
%LPD*%
G01*
G04 APERTURE LIST*
G04 Aperture macros list*
%AMRoundRect*
0 Rectangle with rounded corners*
0 $1 Rounding radius*
0 $2 $3 $4 $5 $6 $7 $8 $9 X,Y pos of 4 corners*
0 Add a 4 corners polygon primitive as box body*
4,1,4,$2,$3,$4,$5,$6,$7,$8,$9,$2,$3,0*
0 Add four circle primitives for the rounded corners*
1,1,$1+$1,$2,$3*
1,1,$1+$1,$4,$5*
1,1,$1+$1,$6,$7*
1,1,$1+$1,$8,$9*
0 Add four rect primitives between the rounded corners*
20,1,$1+$1,$2,$3,$4,$5,0*
20,1,$1+$1,$4,$5,$6,$7,0*
20,1,$1+$1,$6,$7,$8,$9,0*
20,1,$1+$1,$8,$9,$2,$3,0*%
%AMRotRect*
0 Rectangle, with rotation*
0 The origin of the aperture is its center*
0 $1 length*
0 $2 width*
0 $3 Rotation angle, in degrees counterclockwise*
0 Add horizontal line*
21,1,$1,$2,0,0,$3*%
%AMFreePoly0*
4,1,6,1.000000,0.000000,0.500000,-0.750000,-0.500000,-0.750000,-0.500000,0.750000,0.500000,0.750000,1.000000,0.000000,1.000000,0.000000,$1*%
%AMFreePoly1*
4,1,6,0.500000,-0.750000,-0.650000,-0.750000,-0.150000,0.000000,-0.650000,0.750000,0.500000,0.750000,0.500000,-0.750000,0.500000,-0.750000,$1*%
G04 Aperture macros list end*
%ADD10RotRect,0.950000X1.450000X45.000000*%
%ADD11C,1.750000*%
%ADD12C,4.000000*%
%ADD13C,2.500000*%
%ADD14RotRect,1.150000X1.450000X45.000000*%
%ADD15RotRect,0.640000X0.650000X225.000000*%
%ADD16R,0.647700X0.609600*%
%ADD17R,0.950000X1.450000*%
%ADD18FreePoly0,0.000000*%
%ADD19FreePoly1,0.000000*%
%ADD20RotRect,0.600000X0.620000X315.000000*%
%ADD21C,0.800000*%
%ADD22R,0.600000X1.250000*%
%ADD23R,0.300000X1.250000*%
%ADD24C,2.000000*%
%ADD25C,2.565000*%
%ADD26R,1.470000X1.020000*%
%ADD27R,1.200000X1.200000*%
%ADD28RotRect,0.650000X2.850000X135.000000*%
%ADD29RotRect,0.450000X1.475000X45.000000*%
%ADD30R,1.020000X1.470000*%
%ADD31R,0.620000X0.600000*%
%ADD32RoundRect,0.102000X1.237500X-1.237500X1.237500X1.237500X-1.237500X1.237500X-1.237500X-1.237500X0*%
%ADD33C,2.679000*%
%ADD34R,1.450000X1.150000*%
%ADD35R,1.000000X2.100000*%
%ADD36R,4.900000X5.850000*%
%ADD37R,1.220000X1.200000*%
%ADD38R,1.050000X0.600000*%
%ADD39RotRect,0.950000X1.000000X225.000000*%
%ADD40RotRect,0.300000X1.475000X135.000000*%
%ADD41RotRect,0.300000X1.475000X45.000000*%
%ADD42R,0.600000X0.700000*%
%ADD43FreePoly0,180.000000*%
%ADD44FreePoly1,180.000000*%
%ADD45C,3.048000*%
%ADD46C,3.987800*%
%ADD47R,1.450000X0.950000*%
%ADD48R,0.600000X1.200000*%
%ADD49RotRect,0.950000X1.450000X135.000000*%
%ADD50C,7.000000*%
%ADD51RotRect,0.640000X0.650000X45.000000*%
%ADD52C,5.500000*%
%ADD53RotRect,1.150000X1.450000X135.000000*%
%ADD54RotRect,0.400000X1.050000X315.000000*%
%ADD55RotRect,0.600000X0.620000X225.000000*%
%ADD56R,1.200000X0.600000*%
%ADD57RotRect,1.000000X1.450000X225.000000*%
%ADD58RotRect,0.600000X0.620000X45.000000*%
%ADD59RotRect,1.500000X5.500000X45.000000*%
%ADD60RotRect,0.600000X0.620000X135.000000*%
%ADD61R,1.160000X1.820000*%
%ADD62R,1.500000X1.500000*%
%ADD63C,1.500000*%
%ADD64C,4.920000*%
%ADD65RoundRect,0.102000X0.031820X-0.392444X0.392444X-0.031820X-0.031820X0.392444X-0.392444X0.031820X0*%
%ADD66R,5.500000X1.000000*%
%ADD67R,3.000000X1.600000*%
G04 APERTURE END LIST*
D10*
%TO.C,R12*%
X343136793Y-185928007D03*
X344551007Y-184513793D03*
%TD*%
D11*
%TO.C,MX8*%
X200025000Y-87153700D03*
D12*
X205105000Y-87153700D03*
D11*
X210185000Y-87153700D03*
D13*
X201295000Y-84613700D03*
X207645000Y-82073700D03*
%TD*%
D11*
%TO.C,MX78*%
X361950000Y-169068700D03*
D12*
X367030000Y-169068700D03*
D11*
X372110000Y-169068700D03*
D13*
X363220000Y-166528700D03*
X369570000Y-163988700D03*
%TD*%
D14*
%TO.C,C29*%
X195015804Y-53663396D03*
X196288596Y-52390604D03*
%TD*%
D15*
%TO.C,C41*%
X299443998Y-61518498D03*
X298807602Y-60882102D03*
%TD*%
D16*
%TO.C,LED97*%
X177673050Y-211868701D03*
X177673050Y-212868699D03*
X180149550Y-212868699D03*
X180149550Y-211868701D03*
%TD*%
D11*
%TO.C,MX102*%
X338137500Y-207168700D03*
D12*
X343217500Y-207168700D03*
D11*
X348297500Y-207168700D03*
D13*
X339407500Y-204628700D03*
X345757500Y-202088700D03*
%TD*%
D10*
%TO.C,R19*%
X148772793Y-34961707D03*
X150187007Y-33547493D03*
%TD*%
D17*
%TO.C,R16*%
X140329000Y-46615000D03*
X142329000Y-46615000D03*
%TD*%
D10*
%TO.C,R14*%
X347382693Y-190009207D03*
X348796907Y-188594993D03*
%TD*%
D18*
%TO.C,JP3*%
X164999000Y-50295000D03*
D19*
X166449000Y-50295000D03*
%TD*%
D11*
%TO.C,MX94*%
X54768800Y-207168700D03*
D12*
X59848800Y-207168700D03*
D11*
X64928800Y-207168700D03*
D13*
X56038800Y-204628700D03*
X62388800Y-202088700D03*
%TD*%
D11*
%TO.C,MX86*%
X190500000Y-188118700D03*
D12*
X195580000Y-188118700D03*
D11*
X200660000Y-188118700D03*
D13*
X191770000Y-185578700D03*
X198120000Y-183038700D03*
%TD*%
D11*
%TO.C,MX68*%
X142875000Y-169068700D03*
D12*
X147955000Y-169068700D03*
D11*
X153035000Y-169068700D03*
D13*
X144145000Y-166528700D03*
X150495000Y-163988700D03*
%TD*%
D11*
%TO.C,MX62*%
X342900000Y-150018700D03*
D12*
X347980000Y-150018700D03*
D11*
X353060000Y-150018700D03*
D13*
X344170000Y-147478700D03*
X350520000Y-144938700D03*
%TD*%
D16*
%TO.C,LED83*%
X139668250Y-193818699D03*
X139668250Y-192818701D03*
X137191750Y-192818701D03*
X137191750Y-193818699D03*
%TD*%
D20*
%TO.C,C39*%
X299650931Y-55540531D03*
X300301469Y-56191069D03*
%TD*%
D21*
%TO.C,USB-C1*%
X248880000Y-33023000D03*
X242280000Y-33023000D03*
D22*
X248780000Y-34158000D03*
X247980000Y-34158000D03*
D23*
X246830000Y-34158000D03*
X245830000Y-34158000D03*
X245330000Y-34158000D03*
X244330000Y-34158000D03*
D22*
X243180000Y-34158000D03*
X242380000Y-34158000D03*
D23*
X243830000Y-34158000D03*
X244830000Y-34158000D03*
X246330000Y-34158000D03*
X247330000Y-34158000D03*
D24*
X250190000Y-33583000D03*
X240970000Y-33583000D03*
D25*
X250190000Y-29083000D03*
X240970000Y-29083000D03*
%TD*%
D16*
%TO.C,LED21*%
X168243250Y-114761199D03*
X168243250Y-113761201D03*
X165766750Y-113761201D03*
X165766750Y-114761199D03*
%TD*%
%TO.C,LED37*%
X151479250Y-135668701D03*
X151479250Y-136668699D03*
X153955750Y-136668699D03*
X153955750Y-135668701D03*
%TD*%
%TO.C,LED64*%
X63373050Y-173768701D03*
X63373050Y-174768699D03*
X65849550Y-174768699D03*
X65849550Y-173768701D03*
%TD*%
D11*
%TO.C,MX51*%
X119062500Y-150018700D03*
D12*
X124142500Y-150018700D03*
D11*
X129222500Y-150018700D03*
D13*
X120332500Y-147478700D03*
X126682500Y-144938700D03*
%TD*%
D11*
%TO.C,MX67*%
X123825000Y-169068700D03*
D12*
X128905000Y-169068700D03*
D11*
X133985000Y-169068700D03*
D13*
X125095000Y-166528700D03*
X131445000Y-163988700D03*
%TD*%
D11*
%TO.C,MX88*%
X228600000Y-188118700D03*
D12*
X233680000Y-188118700D03*
D11*
X238760000Y-188118700D03*
D13*
X229870000Y-185578700D03*
X236220000Y-183038700D03*
%TD*%
D11*
%TO.C,MX38*%
X166687500Y-130968700D03*
D12*
X171767500Y-130968700D03*
D11*
X176847500Y-130968700D03*
D13*
X167957500Y-128428700D03*
X174307500Y-125888700D03*
%TD*%
D11*
%TO.C,MX39*%
X185737500Y-130968700D03*
D12*
X190817500Y-130968700D03*
D11*
X195897500Y-130968700D03*
D13*
X187007500Y-128428700D03*
X193357500Y-125888700D03*
%TD*%
D11*
%TO.C,MX99*%
X269081300Y-207168700D03*
D12*
X274161300Y-207168700D03*
D11*
X279241300Y-207168700D03*
D13*
X270351300Y-204628700D03*
X276701300Y-202088700D03*
%TD*%
D11*
%TO.C,MX63*%
X361950000Y-150018700D03*
D12*
X367030000Y-150018700D03*
D11*
X372110000Y-150018700D03*
D13*
X363220000Y-147478700D03*
X369570000Y-144938700D03*
%TD*%
D16*
%TO.C,LED6*%
X161004250Y-91853701D03*
X161004250Y-92853699D03*
X163480750Y-92853699D03*
X163480750Y-91853701D03*
%TD*%
D11*
%TO.C,MX34*%
X90487500Y-130968700D03*
D12*
X95567500Y-130968700D03*
D11*
X100647500Y-130968700D03*
D13*
X91757500Y-128428700D03*
X98107500Y-125888700D03*
%TD*%
D26*
%TO.C,C33*%
X240393000Y-58140600D03*
X240393000Y-59760600D03*
%TD*%
D16*
%TO.C,LED53*%
X163480750Y-155718699D03*
X163480750Y-154718701D03*
X161004250Y-154718701D03*
X161004250Y-155718699D03*
%TD*%
D11*
%TO.C,MX32*%
X52387500Y-130968700D03*
D12*
X57467500Y-130968700D03*
D11*
X62547500Y-130968700D03*
D13*
X53657500Y-128428700D03*
X60007500Y-125888700D03*
%TD*%
D16*
%TO.C,LED70*%
X184816750Y-173768701D03*
X184816750Y-174768699D03*
X187293250Y-174768699D03*
X187293250Y-173768701D03*
%TD*%
%TO.C,LED27*%
X287305750Y-114761199D03*
X287305750Y-113761201D03*
X284829250Y-113761201D03*
X284829250Y-114761199D03*
%TD*%
%TO.C,LED57*%
X239680750Y-155718699D03*
X239680750Y-154718701D03*
X237204250Y-154718701D03*
X237204250Y-155718699D03*
%TD*%
D11*
%TO.C,MX22*%
X180975000Y-109061200D03*
D12*
X186055000Y-109061200D03*
D11*
X191135000Y-109061200D03*
D13*
X182245000Y-106521200D03*
X188595000Y-103981200D03*
%TD*%
D16*
%TO.C,LED85*%
X177768250Y-193818699D03*
X177768250Y-192818701D03*
X175291750Y-192818701D03*
X175291750Y-193818699D03*
%TD*%
D11*
%TO.C,MX5*%
X138112500Y-87153700D03*
D12*
X143192500Y-87153700D03*
D11*
X148272500Y-87153700D03*
D13*
X139382500Y-84613700D03*
X145732500Y-82073700D03*
%TD*%
D27*
%TO.C,Schottky/ReversPolProtec1*%
X252095000Y-45269000D03*
X252095000Y-42469000D03*
%TD*%
D28*
%TO.C,J1*%
X209187055Y-34689047D03*
X206818247Y-37057855D03*
X208289029Y-33791022D03*
X205920222Y-36159829D03*
X207391004Y-32892996D03*
X205022196Y-35261804D03*
X206492978Y-31994971D03*
X204124171Y-34363778D03*
X205594953Y-31096945D03*
X203226145Y-33465753D03*
%TD*%
D29*
%TO.C,(BidirectionalLogicLevelShifter)IC4*%
X294784879Y-52632162D03*
X294325259Y-53091781D03*
X293865640Y-53551401D03*
X293406020Y-54011020D03*
X292946401Y-54470640D03*
X292486781Y-54930259D03*
X292027162Y-55389879D03*
X296182121Y-59544838D03*
X296641741Y-59085219D03*
X297101360Y-58625599D03*
X297560980Y-58165980D03*
X298020599Y-57706360D03*
X298480219Y-57246741D03*
X298939838Y-56787121D03*
%TD*%
D30*
%TO.C,C4*%
X222769000Y-57575000D03*
X224389000Y-57575000D03*
%TD*%
D16*
%TO.C,LED54*%
X182530750Y-155718699D03*
X182530750Y-154718701D03*
X180054250Y-154718701D03*
X180054250Y-155718699D03*
%TD*%
D11*
%TO.C,MX1*%
X52387500Y-87153700D03*
D12*
X57467500Y-87153700D03*
D11*
X62547500Y-87153700D03*
D13*
X53657500Y-84613700D03*
X60007500Y-82073700D03*
%TD*%
D11*
%TO.C,MX49*%
X80962500Y-150018700D03*
D12*
X86042500Y-150018700D03*
D11*
X91122500Y-150018700D03*
D13*
X82232500Y-147478700D03*
X88582500Y-144938700D03*
%TD*%
D11*
%TO.C,MX98*%
X245268800Y-207168700D03*
D12*
X250348800Y-207168700D03*
D11*
X255428800Y-207168700D03*
D13*
X246538800Y-204628700D03*
X252888800Y-202088700D03*
%TD*%
D16*
%TO.C,LED87*%
X215868250Y-193818699D03*
X215868250Y-192818701D03*
X213391750Y-192818701D03*
X213391750Y-193818699D03*
%TD*%
D31*
%TO.C,C32*%
X250063000Y-57949000D03*
X250063000Y-58869000D03*
%TD*%
D16*
%TO.C,LED20*%
X144430750Y-114761199D03*
X144430750Y-113761201D03*
X141954250Y-113761201D03*
X141954250Y-114761199D03*
%TD*%
%TO.C,LED71*%
X203866750Y-173768701D03*
X203866750Y-174768699D03*
X206343250Y-174768699D03*
X206343250Y-173768701D03*
%TD*%
%TO.C,LED101*%
X322929250Y-211868701D03*
X322929250Y-212868699D03*
X325405750Y-212868699D03*
X325405750Y-211868701D03*
%TD*%
D32*
%TO.C,S6*%
X375651500Y-67742000D03*
D33*
X375651500Y-62992000D03*
X375651500Y-58242000D03*
%TD*%
D11*
%TO.C,MX15*%
X361950000Y-87153700D03*
D12*
X367030000Y-87153700D03*
D11*
X372110000Y-87153700D03*
D13*
X363220000Y-84613700D03*
X369570000Y-82073700D03*
%TD*%
D16*
%TO.C,LED89*%
X253968250Y-193818699D03*
X253968250Y-192818701D03*
X251491750Y-192818701D03*
X251491750Y-193818699D03*
%TD*%
%TO.C,LED98*%
X249110550Y-211868701D03*
X249110550Y-212868699D03*
X251587050Y-212868699D03*
X251587050Y-211868701D03*
%TD*%
D10*
%TO.C,R18*%
X152963793Y-38898707D03*
X154378007Y-37484493D03*
%TD*%
D16*
%TO.C,LED31*%
X368268250Y-114761199D03*
X368268250Y-113761201D03*
X365791750Y-113761201D03*
X365791750Y-114761199D03*
%TD*%
%TO.C,LED56*%
X220630750Y-155718699D03*
X220630750Y-154718701D03*
X218154250Y-154718701D03*
X218154250Y-155718699D03*
%TD*%
D34*
%TO.C,C13*%
X378333000Y-173377000D03*
X378333000Y-171577000D03*
%TD*%
D18*
%TO.C,JP1*%
X164996200Y-45125000D03*
D19*
X166446200Y-45125000D03*
%TD*%
D11*
%TO.C,MX91*%
X292893800Y-188118700D03*
D12*
X297973800Y-188118700D03*
D11*
X303053800Y-188118700D03*
D13*
X294163800Y-185578700D03*
X300513800Y-183038700D03*
%TD*%
D11*
%TO.C,MX80*%
X76200000Y-188118700D03*
D12*
X81280000Y-188118700D03*
D11*
X86360000Y-188118700D03*
D13*
X77470000Y-185578700D03*
X83820000Y-183038700D03*
%TD*%
D11*
%TO.C,MX45*%
X309562500Y-130968700D03*
D12*
X314642500Y-130968700D03*
D11*
X319722500Y-130968700D03*
D13*
X310832500Y-128428700D03*
X317182500Y-125888700D03*
%TD*%
D16*
%TO.C,LED99*%
X272923050Y-211868701D03*
X272923050Y-212868699D03*
X275399550Y-212868699D03*
X275399550Y-211868701D03*
%TD*%
D34*
%TO.C,C9*%
X378333000Y-91694000D03*
X378333000Y-89894000D03*
%TD*%
%TO.C,C11*%
X378333000Y-135382000D03*
X378333000Y-133582000D03*
%TD*%
D16*
%TO.C,LED61*%
X323024550Y-165243699D03*
X323024550Y-164243701D03*
X320548050Y-164243701D03*
X320548050Y-165243699D03*
%TD*%
D20*
%TO.C,C28*%
X187131431Y-42090431D03*
X187781969Y-42740969D03*
%TD*%
D16*
%TO.C,LED13*%
X327691750Y-91853701D03*
X327691750Y-92853699D03*
X330168250Y-92853699D03*
X330168250Y-91853701D03*
%TD*%
%TO.C,LED81*%
X101568250Y-193818699D03*
X101568250Y-192818701D03*
X99091750Y-192818701D03*
X99091750Y-193818699D03*
%TD*%
D11*
%TO.C,MX9*%
X223837500Y-87153700D03*
D12*
X228917500Y-87153700D03*
D11*
X233997500Y-87153700D03*
D13*
X225107500Y-84613700D03*
X231457500Y-82073700D03*
%TD*%
D16*
%TO.C,LED18*%
X106330750Y-114761199D03*
X106330750Y-113761201D03*
X103854250Y-113761201D03*
X103854250Y-114761199D03*
%TD*%
D11*
%TO.C,MX100*%
X300037500Y-207168700D03*
D12*
X305117500Y-207168700D03*
D11*
X310197500Y-207168700D03*
D13*
X301307500Y-204628700D03*
X307657500Y-202088700D03*
%TD*%
D35*
%TO.C,(LF50ABDT-TR)-IC3*%
X247771000Y-58896000D03*
X243211000Y-58896000D03*
D36*
X245491000Y-65696000D03*
%TD*%
D30*
%TO.C,C5*%
X222779000Y-51145000D03*
X224399000Y-51145000D03*
%TD*%
D16*
%TO.C,LED80*%
X82518250Y-193818699D03*
X82518250Y-192818701D03*
X80041750Y-192818701D03*
X80041750Y-193818699D03*
%TD*%
%TO.C,LED15*%
X365791750Y-91853701D03*
X365791750Y-92853699D03*
X368268250Y-92853699D03*
X368268250Y-91853701D03*
%TD*%
%TO.C,LED52*%
X144430750Y-155718699D03*
X144430750Y-154718701D03*
X141954250Y-154718701D03*
X141954250Y-155718699D03*
%TD*%
D11*
%TO.C,MX82*%
X114300000Y-188118700D03*
D12*
X119380000Y-188118700D03*
D11*
X124460000Y-188118700D03*
D13*
X115570000Y-185578700D03*
X121920000Y-183038700D03*
%TD*%
D16*
%TO.C,LED84*%
X158718250Y-193818699D03*
X158718250Y-192818701D03*
X156241750Y-192818701D03*
X156241750Y-193818699D03*
%TD*%
D37*
%TO.C,TVSDiode/ESDSuppr1*%
X252095000Y-39803000D03*
X252095000Y-36703000D03*
%TD*%
D16*
%TO.C,LED55*%
X201580750Y-155718699D03*
X201580750Y-154718701D03*
X199104250Y-154718701D03*
X199104250Y-155718699D03*
%TD*%
%TO.C,LED41*%
X227679250Y-135668701D03*
X227679250Y-136668699D03*
X230155750Y-136668699D03*
X230155750Y-135668701D03*
%TD*%
D38*
%TO.C,Q1*%
X142579000Y-41315000D03*
X142579000Y-39415000D03*
X140379000Y-40365000D03*
%TD*%
D39*
%TO.C,C1*%
X170718485Y-54538415D03*
X169587115Y-55669785D03*
%TD*%
D34*
%TO.C,C18*%
X238506000Y-43002200D03*
X238506000Y-44802200D03*
%TD*%
D11*
%TO.C,MX85*%
X171450000Y-188118700D03*
D12*
X176530000Y-188118700D03*
D11*
X181610000Y-188118700D03*
D13*
X172720000Y-185578700D03*
X179070000Y-183038700D03*
%TD*%
D18*
%TO.C,JP4*%
X164996200Y-40225000D03*
D19*
X166446200Y-40225000D03*
%TD*%
D40*
%TO.C,MCU1*%
X177948971Y-52078728D03*
X178302524Y-52432282D03*
X178656078Y-52785835D03*
X179009631Y-53139388D03*
X179363184Y-53492942D03*
X179716738Y-53846495D03*
X180070291Y-54200049D03*
X180423845Y-54553602D03*
X180777398Y-54907155D03*
X181130951Y-55260709D03*
X181484505Y-55614262D03*
X181838058Y-55967816D03*
X182191612Y-56321369D03*
X182545165Y-56674922D03*
X182898718Y-57028476D03*
X183252272Y-57382029D03*
D41*
X186063728Y-57382029D03*
X186417282Y-57028476D03*
X186770835Y-56674922D03*
X187124388Y-56321369D03*
X187477942Y-55967816D03*
X187831495Y-55614262D03*
X188185049Y-55260709D03*
X188538602Y-54907155D03*
X188892155Y-54553602D03*
X189245709Y-54200049D03*
X189599262Y-53846495D03*
X189952816Y-53492942D03*
X190306369Y-53139388D03*
X190659922Y-52785835D03*
X191013476Y-52432282D03*
X191367029Y-52078728D03*
D40*
X191367029Y-49267272D03*
X191013476Y-48913718D03*
X190659922Y-48560165D03*
X190306369Y-48206612D03*
X189952816Y-47853058D03*
X189599262Y-47499505D03*
X189245709Y-47145951D03*
X188892155Y-46792398D03*
X188538602Y-46438845D03*
X188185049Y-46085291D03*
X187831495Y-45731738D03*
X187477942Y-45378184D03*
X187124388Y-45024631D03*
X186770835Y-44671078D03*
X186417282Y-44317524D03*
X186063728Y-43963971D03*
D41*
X183252272Y-43963971D03*
X182898718Y-44317524D03*
X182545165Y-44671078D03*
X182191612Y-45024631D03*
X181838058Y-45378184D03*
X181484505Y-45731738D03*
X181130951Y-46085291D03*
X180777398Y-46438845D03*
X180423845Y-46792398D03*
X180070291Y-47145951D03*
X179716738Y-47499505D03*
X179363184Y-47853058D03*
X179009631Y-48206612D03*
X178656078Y-48560165D03*
X178302524Y-48913718D03*
X177948971Y-49267272D03*
%TD*%
D11*
%TO.C,MX89*%
X247650000Y-188118700D03*
D12*
X252730000Y-188118700D03*
D11*
X257810000Y-188118700D03*
D13*
X248920000Y-185578700D03*
X255270000Y-183038700D03*
%TD*%
D31*
%TO.C,C42*%
X377909000Y-94575000D03*
X377909000Y-93655000D03*
%TD*%
D11*
%TO.C,MX92*%
X319087500Y-188118700D03*
D12*
X324167500Y-188118700D03*
D11*
X329247500Y-188118700D03*
D13*
X320357500Y-185578700D03*
X326707500Y-183038700D03*
%TD*%
D16*
%TO.C,LED2*%
X75279250Y-91853701D03*
X75279250Y-92853699D03*
X77755750Y-92853699D03*
X77755750Y-91853701D03*
%TD*%
D11*
%TO.C,MX53*%
X157162500Y-150018700D03*
D12*
X162242500Y-150018700D03*
D11*
X167322500Y-150018700D03*
D13*
X158432500Y-147478700D03*
X164782500Y-144938700D03*
%TD*%
D42*
%TO.C,R15*%
X256667000Y-34163000D03*
X256667000Y-33063000D03*
%TD*%
D16*
%TO.C,LED78*%
X365791750Y-173768701D03*
X365791750Y-174768699D03*
X368268250Y-174768699D03*
X368268250Y-173768701D03*
%TD*%
D34*
%TO.C,C10*%
X378333000Y-113560000D03*
X378333000Y-111760000D03*
%TD*%
D16*
%TO.C,LED92*%
X325405750Y-193818699D03*
X325405750Y-192818701D03*
X322929250Y-192818701D03*
X322929250Y-193818699D03*
%TD*%
D39*
%TO.C,C2*%
X184376785Y-68058115D03*
X183245415Y-69189485D03*
%TD*%
D16*
%TO.C,LED33*%
X75279250Y-135668701D03*
X75279250Y-136668699D03*
X77755750Y-136668699D03*
X77755750Y-135668701D03*
%TD*%
%TO.C,LED69*%
X165766750Y-173768701D03*
X165766750Y-174768699D03*
X168243250Y-174768699D03*
X168243250Y-173768701D03*
%TD*%
D11*
%TO.C,MX16*%
X52387500Y-109061200D03*
D12*
X57467500Y-109061200D03*
D11*
X62547500Y-109061200D03*
D13*
X53657500Y-106521200D03*
X60007500Y-103981200D03*
%TD*%
D11*
%TO.C,MX60*%
X290512500Y-150018700D03*
D12*
X295592500Y-150018700D03*
D11*
X300672500Y-150018700D03*
D13*
X291782500Y-147478700D03*
X298132500Y-144938700D03*
%TD*%
D16*
%TO.C,LED65*%
X89566750Y-173768701D03*
X89566750Y-174768699D03*
X92043250Y-174768699D03*
X92043250Y-173768701D03*
%TD*%
D43*
%TO.C,JP2*%
X166448400Y-35941000D03*
D44*
X164998400Y-35941000D03*
%TD*%
D16*
%TO.C,LED48*%
X63468250Y-155718699D03*
X63468250Y-154718701D03*
X60991750Y-154718701D03*
X60991750Y-155718699D03*
%TD*%
D11*
%TO.C,MX30*%
X342900000Y-109061200D03*
D12*
X347980000Y-109061200D03*
D11*
X353060000Y-109061200D03*
D13*
X344170000Y-106521200D03*
X350520000Y-103981200D03*
%TD*%
D45*
%TO.C,S1*%
X326580500Y-137953700D03*
D46*
X326580500Y-122743700D03*
D45*
X302704500Y-137953700D03*
D46*
X302704500Y-122743700D03*
%TD*%
D11*
%TO.C,MX24*%
X219075000Y-109061200D03*
D12*
X224155000Y-109061200D03*
D11*
X229235000Y-109061200D03*
D13*
X220345000Y-106521200D03*
X226695000Y-103981200D03*
%TD*%
D16*
%TO.C,LED3*%
X99091750Y-91853701D03*
X99091750Y-92853699D03*
X101568250Y-92853699D03*
X101568250Y-91853701D03*
%TD*%
D11*
%TO.C,MX6*%
X157162500Y-87153700D03*
D12*
X162242500Y-87153700D03*
D11*
X167322500Y-87153700D03*
D13*
X158432500Y-84613700D03*
X164782500Y-82073700D03*
%TD*%
D11*
%TO.C,MX17*%
X80962500Y-109061200D03*
D12*
X86042500Y-109061200D03*
D11*
X91122500Y-109061200D03*
D13*
X82232500Y-106521200D03*
X88582500Y-103981200D03*
%TD*%
D16*
%TO.C,LED93*%
X368268250Y-193818699D03*
X368268250Y-192818701D03*
X365791750Y-192818701D03*
X365791750Y-193818699D03*
%TD*%
D11*
%TO.C,MX4*%
X114300000Y-87153700D03*
D12*
X119380000Y-87153700D03*
D11*
X124460000Y-87153700D03*
D13*
X115570000Y-84613700D03*
X121920000Y-82073700D03*
%TD*%
D11*
%TO.C,MX70*%
X180975000Y-169068700D03*
D12*
X186055000Y-169068700D03*
D11*
X191135000Y-169068700D03*
D13*
X182245000Y-166528700D03*
X188595000Y-163988700D03*
%TD*%
D11*
%TO.C,MX43*%
X261937500Y-130968700D03*
D12*
X267017500Y-130968700D03*
D11*
X272097500Y-130968700D03*
D13*
X263207500Y-128428700D03*
X269557500Y-125888700D03*
%TD*%
D16*
%TO.C,LED86*%
X196818250Y-193818699D03*
X196818250Y-192818701D03*
X194341750Y-192818701D03*
X194341750Y-193818699D03*
%TD*%
%TO.C,LED68*%
X146716750Y-173768701D03*
X146716750Y-174768699D03*
X149193250Y-174768699D03*
X149193250Y-173768701D03*
%TD*%
D11*
%TO.C,MX19*%
X119062500Y-109061200D03*
D12*
X124142500Y-109061200D03*
D11*
X129222500Y-109061200D03*
D13*
X120332500Y-106521200D03*
X126682500Y-103981200D03*
%TD*%
D11*
%TO.C,MX59*%
X271462500Y-150018700D03*
D12*
X276542500Y-150018700D03*
D11*
X281622500Y-150018700D03*
D13*
X272732500Y-147478700D03*
X279082500Y-144938700D03*
%TD*%
D47*
%TO.C,R21*%
X378333000Y-199882000D03*
X378333000Y-197882000D03*
%TD*%
D11*
%TO.C,MX41*%
X223837500Y-130968700D03*
D12*
X228917500Y-130968700D03*
D11*
X233997500Y-130968700D03*
D13*
X225107500Y-128428700D03*
X231457500Y-125888700D03*
%TD*%
D11*
%TO.C,MX40*%
X204787500Y-130968700D03*
D12*
X209867500Y-130968700D03*
D11*
X214947500Y-130968700D03*
D13*
X206057500Y-128428700D03*
X212407500Y-125888700D03*
%TD*%
D16*
%TO.C,LED73*%
X241966750Y-173768701D03*
X241966750Y-174768699D03*
X244443250Y-174768699D03*
X244443250Y-173768701D03*
%TD*%
%TO.C,LED51*%
X125380750Y-155718699D03*
X125380750Y-154718701D03*
X122904250Y-154718701D03*
X122904250Y-155718699D03*
%TD*%
D11*
%TO.C,MX21*%
X161925000Y-109061200D03*
D12*
X167005000Y-109061200D03*
D11*
X172085000Y-109061200D03*
D13*
X163195000Y-106521200D03*
X169545000Y-103981200D03*
%TD*%
D11*
%TO.C,MX61*%
X316706300Y-159543700D03*
D12*
X321786300Y-159543700D03*
D11*
X326866300Y-159543700D03*
D13*
X317976300Y-157003700D03*
X324326300Y-154463700D03*
%TD*%
D48*
%TO.C,(LDORegulator)IC1*%
X222779000Y-55625000D03*
X223729000Y-55625000D03*
X224679000Y-55625000D03*
X224679000Y-53125000D03*
X222779000Y-53125000D03*
%TD*%
D16*
%TO.C,LED102*%
X341979250Y-211868701D03*
X341979250Y-212868699D03*
X344455750Y-212868699D03*
X344455750Y-211868701D03*
%TD*%
D49*
%TO.C,R13*%
X348742007Y-185928007D03*
X347327793Y-184513793D03*
%TD*%
D50*
%TO.C,H2*%
X49784000Y-169025000D03*
%TD*%
D51*
%TO.C,C37*%
X300331602Y-59427102D03*
X300967998Y-60063498D03*
%TD*%
D16*
%TO.C,LED60*%
X296830750Y-155718699D03*
X296830750Y-154718701D03*
X294354250Y-154718701D03*
X294354250Y-155718699D03*
%TD*%
%TO.C,LED26*%
X268255750Y-114761199D03*
X268255750Y-113761201D03*
X265779250Y-113761201D03*
X265779250Y-114761199D03*
%TD*%
D45*
%TO.C,S2*%
X314801300Y-171481700D03*
D46*
X330011300Y-171481700D03*
D45*
X314801300Y-147605700D03*
D46*
X330011300Y-147605700D03*
%TD*%
D16*
%TO.C,LED100*%
X303879250Y-211868701D03*
X303879250Y-212868699D03*
X306355750Y-212868699D03*
X306355750Y-211868701D03*
%TD*%
%TO.C,LED77*%
X346741750Y-173768701D03*
X346741750Y-174768699D03*
X349218250Y-174768699D03*
X349218250Y-173768701D03*
%TD*%
D11*
%TO.C,MX27*%
X280987500Y-109061200D03*
D12*
X286067500Y-109061200D03*
D11*
X291147500Y-109061200D03*
D13*
X282257500Y-106521200D03*
X288607500Y-103981200D03*
%TD*%
D11*
%TO.C,MX83*%
X133350000Y-188118700D03*
D12*
X138430000Y-188118700D03*
D11*
X143510000Y-188118700D03*
D13*
X134620000Y-185578700D03*
X140970000Y-183038700D03*
%TD*%
D16*
%TO.C,LED5*%
X141954250Y-91853701D03*
X141954250Y-92853699D03*
X144430750Y-92853699D03*
X144430750Y-91853701D03*
%TD*%
%TO.C,LED58*%
X258730750Y-155718699D03*
X258730750Y-154718701D03*
X256254250Y-154718701D03*
X256254250Y-155718699D03*
%TD*%
D52*
%TO.C,H3*%
X371729000Y-36195000D03*
%TD*%
D11*
%TO.C,MX71*%
X200025000Y-169068700D03*
D12*
X205105000Y-169068700D03*
D11*
X210185000Y-169068700D03*
D13*
X201295000Y-166528700D03*
X207645000Y-163988700D03*
%TD*%
D16*
%TO.C,LED91*%
X299212050Y-193818699D03*
X299212050Y-192818701D03*
X296735550Y-192818701D03*
X296735550Y-193818699D03*
%TD*%
D11*
%TO.C,MX96*%
X102393800Y-207168700D03*
D12*
X107473800Y-207168700D03*
D11*
X112553800Y-207168700D03*
D13*
X103663800Y-204628700D03*
X110013800Y-202088700D03*
%TD*%
D11*
%TO.C,MX28*%
X300037500Y-109061200D03*
D12*
X305117500Y-109061200D03*
D11*
X310197500Y-109061200D03*
D13*
X301307500Y-106521200D03*
X307657500Y-103981200D03*
%TD*%
D16*
%TO.C,LED88*%
X234918250Y-193818699D03*
X234918250Y-192818701D03*
X232441750Y-192818701D03*
X232441750Y-193818699D03*
%TD*%
D53*
%TO.C,C8*%
X155321000Y-33655000D03*
X154048208Y-32382208D03*
%TD*%
D11*
%TO.C,MX52*%
X138112500Y-150018700D03*
D12*
X143192500Y-150018700D03*
D11*
X148272500Y-150018700D03*
D13*
X139382500Y-147478700D03*
X145732500Y-144938700D03*
%TD*%
D16*
%TO.C,LED7*%
X184816750Y-91853701D03*
X184816750Y-92853699D03*
X187293250Y-92853699D03*
X187293250Y-91853701D03*
%TD*%
D11*
%TO.C,MX55*%
X195262500Y-150018700D03*
D12*
X200342500Y-150018700D03*
D11*
X205422500Y-150018700D03*
D13*
X196532500Y-147478700D03*
X202882500Y-144938700D03*
%TD*%
D16*
%TO.C,LED16*%
X58705750Y-114761199D03*
X58705750Y-113761201D03*
X56229250Y-113761201D03*
X56229250Y-114761199D03*
%TD*%
%TO.C,LED1*%
X56229250Y-91853701D03*
X56229250Y-92853699D03*
X58705750Y-92853699D03*
X58705750Y-91853701D03*
%TD*%
D11*
%TO.C,MX33*%
X71437500Y-130968700D03*
D12*
X76517500Y-130968700D03*
D11*
X81597500Y-130968700D03*
D13*
X72707500Y-128428700D03*
X79057500Y-125888700D03*
%TD*%
D11*
%TO.C,MX75*%
X276225000Y-169068700D03*
D12*
X281305000Y-169068700D03*
D11*
X286385000Y-169068700D03*
D13*
X277495000Y-166528700D03*
X283845000Y-163988700D03*
%TD*%
D11*
%TO.C,MX46*%
X342900000Y-130968700D03*
D12*
X347980000Y-130968700D03*
D11*
X353060000Y-130968700D03*
D13*
X344170000Y-128428700D03*
X350520000Y-125888700D03*
%TD*%
D11*
%TO.C,MX84*%
X152400000Y-188118700D03*
D12*
X157480000Y-188118700D03*
D11*
X162560000Y-188118700D03*
D13*
X153670000Y-185578700D03*
X160020000Y-183038700D03*
%TD*%
D11*
%TO.C,MX56*%
X214312500Y-150018700D03*
D12*
X219392500Y-150018700D03*
D11*
X224472500Y-150018700D03*
D13*
X215582500Y-147478700D03*
X221932500Y-144938700D03*
%TD*%
D11*
%TO.C,MX69*%
X161925000Y-169068700D03*
D12*
X167005000Y-169068700D03*
D11*
X172085000Y-169068700D03*
D13*
X163195000Y-166528700D03*
X169545000Y-163988700D03*
%TD*%
D11*
%TO.C,MX11*%
X266700000Y-87153700D03*
D12*
X271780000Y-87153700D03*
D11*
X276860000Y-87153700D03*
D13*
X267970000Y-84613700D03*
X274320000Y-82073700D03*
%TD*%
D16*
%TO.C,LED40*%
X208629250Y-135668701D03*
X208629250Y-136668699D03*
X211105750Y-136668699D03*
X211105750Y-135668701D03*
%TD*%
%TO.C,LED39*%
X189579250Y-135668701D03*
X189579250Y-136668699D03*
X192055750Y-136668699D03*
X192055750Y-135668701D03*
%TD*%
D11*
%TO.C,MX79*%
X54768800Y-188118700D03*
D12*
X59848800Y-188118700D03*
D11*
X64928800Y-188118700D03*
D13*
X56038800Y-185578700D03*
X62388800Y-183038700D03*
%TD*%
D16*
%TO.C,LED67*%
X127666750Y-173768701D03*
X127666750Y-174768699D03*
X130143250Y-174768699D03*
X130143250Y-173768701D03*
%TD*%
D11*
%TO.C,MX37*%
X147637500Y-130968700D03*
D12*
X152717500Y-130968700D03*
D11*
X157797500Y-130968700D03*
D13*
X148907500Y-128428700D03*
X155257500Y-125888700D03*
%TD*%
D54*
%TO.C,(AND_Gate)IC6*%
X152715371Y-36002368D03*
X152255751Y-35542749D03*
X151796132Y-35083129D03*
X150452629Y-36426632D03*
X151371868Y-37345871D03*
%TD*%
D52*
%TO.C,H1*%
X54229000Y-36195000D03*
%TD*%
D11*
%TO.C,MX93*%
X361950000Y-188118700D03*
D12*
X367030000Y-188118700D03*
D11*
X372110000Y-188118700D03*
D13*
X363220000Y-185578700D03*
X369570000Y-183038700D03*
%TD*%
D16*
%TO.C,LED10*%
X246729250Y-91853701D03*
X246729250Y-92853699D03*
X249205750Y-92853699D03*
X249205750Y-91853701D03*
%TD*%
D11*
%TO.C,MX3*%
X95250000Y-87153700D03*
D12*
X100330000Y-87153700D03*
D11*
X105410000Y-87153700D03*
D13*
X96520000Y-84613700D03*
X102870000Y-82073700D03*
%TD*%
D11*
%TO.C,MX29*%
X323850000Y-109061200D03*
D12*
X328930000Y-109061200D03*
D11*
X334010000Y-109061200D03*
D13*
X325120000Y-106521200D03*
X331470000Y-103981200D03*
%TD*%
D16*
%TO.C,LED28*%
X306355750Y-114761199D03*
X306355750Y-113761201D03*
X303879250Y-113761201D03*
X303879250Y-114761199D03*
%TD*%
D11*
%TO.C,MX97*%
X173831300Y-207168700D03*
D12*
X178911300Y-207168700D03*
D11*
X183991300Y-207168700D03*
D13*
X175101300Y-204628700D03*
X181451300Y-202088700D03*
%TD*%
D11*
%TO.C,MX81*%
X95250000Y-188118700D03*
D12*
X100330000Y-188118700D03*
D11*
X105410000Y-188118700D03*
D13*
X96520000Y-185578700D03*
X102870000Y-183038700D03*
%TD*%
D16*
%TO.C,LED14*%
X346741750Y-91853701D03*
X346741750Y-92853699D03*
X349218250Y-92853699D03*
X349218250Y-91853701D03*
%TD*%
D11*
%TO.C,MX87*%
X209550000Y-188118700D03*
D12*
X214630000Y-188118700D03*
D11*
X219710000Y-188118700D03*
D13*
X210820000Y-185578700D03*
X217170000Y-183038700D03*
%TD*%
D16*
%TO.C,LED95*%
X82423050Y-211868701D03*
X82423050Y-212868699D03*
X84899550Y-212868699D03*
X84899550Y-211868701D03*
%TD*%
D11*
%TO.C,MX44*%
X280987500Y-130968700D03*
D12*
X286067500Y-130968700D03*
D11*
X291147500Y-130968700D03*
D13*
X282257500Y-128428700D03*
X288607500Y-125888700D03*
%TD*%
D16*
%TO.C,LED47*%
X365791750Y-135668701D03*
X365791750Y-136668699D03*
X368268250Y-136668699D03*
X368268250Y-135668701D03*
%TD*%
%TO.C,LED90*%
X273018250Y-193818699D03*
X273018250Y-192818701D03*
X270541750Y-192818701D03*
X270541750Y-193818699D03*
%TD*%
%TO.C,LED82*%
X120618250Y-193818699D03*
X120618250Y-192818701D03*
X118141750Y-192818701D03*
X118141750Y-193818699D03*
%TD*%
D55*
%TO.C,C27*%
X193425669Y-52179131D03*
X192775131Y-52829669D03*
%TD*%
D16*
%TO.C,LED63*%
X368268250Y-155718699D03*
X368268250Y-154718701D03*
X365791750Y-154718701D03*
X365791750Y-155718699D03*
%TD*%
%TO.C,LED94*%
X58610550Y-211868701D03*
X58610550Y-212868699D03*
X61087050Y-212868699D03*
X61087050Y-211868701D03*
%TD*%
%TO.C,LED49*%
X87280750Y-155718699D03*
X87280750Y-154718701D03*
X84804250Y-154718701D03*
X84804250Y-155718699D03*
%TD*%
D51*
%TO.C,C36*%
X299569602Y-60189102D03*
X300205998Y-60825498D03*
%TD*%
D34*
%TO.C,C12*%
X378333000Y-154327000D03*
X378333000Y-152527000D03*
%TD*%
D11*
%TO.C,MX31*%
X361950000Y-109061200D03*
D12*
X367030000Y-109061200D03*
D11*
X372110000Y-109061200D03*
D13*
X363220000Y-106521200D03*
X369570000Y-103981200D03*
%TD*%
D42*
%TO.C,R1*%
X234442000Y-34163000D03*
X234442000Y-33063000D03*
%TD*%
D16*
%TO.C,LED24*%
X225393250Y-114761199D03*
X225393250Y-113761201D03*
X222916750Y-113761201D03*
X222916750Y-114761199D03*
%TD*%
%TO.C,LED50*%
X106330750Y-155718699D03*
X106330750Y-154718701D03*
X103854250Y-154718701D03*
X103854250Y-155718699D03*
%TD*%
%TO.C,LED43*%
X265779250Y-135668701D03*
X265779250Y-136668699D03*
X268255750Y-136668699D03*
X268255750Y-135668701D03*
%TD*%
D55*
%TO.C,C31*%
X188056669Y-57942331D03*
X187406131Y-58592869D03*
%TD*%
D16*
%TO.C,LED42*%
X246729250Y-135668701D03*
X246729250Y-136668699D03*
X249205750Y-136668699D03*
X249205750Y-135668701D03*
%TD*%
D34*
%TO.C,C15*%
X378333000Y-211836000D03*
X378333000Y-210036000D03*
%TD*%
D56*
%TO.C,D103*%
X239863000Y-38836600D03*
X239863000Y-37886600D03*
X239863000Y-36936600D03*
X237363000Y-36936600D03*
X237363000Y-37886600D03*
X237363000Y-38836600D03*
%TD*%
D16*
%TO.C,LED96*%
X106235550Y-211868701D03*
X106235550Y-212868699D03*
X108712050Y-212868699D03*
X108712050Y-211868701D03*
%TD*%
D11*
%TO.C,MX72*%
X219075000Y-169068700D03*
D12*
X224155000Y-169068700D03*
D11*
X229235000Y-169068700D03*
D13*
X220345000Y-166528700D03*
X226695000Y-163988700D03*
%TD*%
D45*
%TO.C,S3*%
X228911300Y-214153700D03*
D46*
X228911300Y-198943700D03*
D45*
X128911300Y-214153700D03*
D46*
X128911300Y-198943700D03*
%TD*%
D11*
%TO.C,MX26*%
X261937500Y-109061200D03*
D12*
X267017500Y-109061200D03*
D11*
X272097500Y-109061200D03*
D13*
X263207500Y-106521200D03*
X269557500Y-103981200D03*
%TD*%
D16*
%TO.C,LED34*%
X94329250Y-135668701D03*
X94329250Y-136668699D03*
X96805750Y-136668699D03*
X96805750Y-135668701D03*
%TD*%
%TO.C,LED79*%
X61087050Y-193818699D03*
X61087050Y-192818701D03*
X58610550Y-192818701D03*
X58610550Y-193818699D03*
%TD*%
D11*
%TO.C,MX77*%
X342900000Y-169068700D03*
D12*
X347980000Y-169068700D03*
D11*
X353060000Y-169068700D03*
D13*
X344170000Y-166528700D03*
X350520000Y-163988700D03*
%TD*%
D16*
%TO.C,LED4*%
X118141750Y-91853701D03*
X118141750Y-92853699D03*
X120618250Y-92853699D03*
X120618250Y-91853701D03*
%TD*%
%TO.C,LED75*%
X280066750Y-173768701D03*
X280066750Y-174768699D03*
X282543250Y-174768699D03*
X282543250Y-173768701D03*
%TD*%
%TO.C,LED59*%
X277780750Y-155718699D03*
X277780750Y-154718701D03*
X275304250Y-154718701D03*
X275304250Y-155718699D03*
%TD*%
%TO.C,LED66*%
X108616750Y-173768701D03*
X108616750Y-174768699D03*
X111093250Y-174768699D03*
X111093250Y-173768701D03*
%TD*%
D52*
%TO.C,H4*%
X290819000Y-207137000D03*
%TD*%
D16*
%TO.C,LED12*%
X289591750Y-91853701D03*
X289591750Y-92853699D03*
X292068250Y-92853699D03*
X292068250Y-91853701D03*
%TD*%
D53*
%TO.C,C3*%
X171921792Y-51387792D03*
X170649000Y-50115000D03*
%TD*%
D16*
%TO.C,LED22*%
X187293250Y-114761199D03*
X187293250Y-113761201D03*
X184816750Y-113761201D03*
X184816750Y-114761199D03*
%TD*%
%TO.C,LED35*%
X113379250Y-135668701D03*
X113379250Y-136668699D03*
X115855750Y-136668699D03*
X115855750Y-135668701D03*
%TD*%
D11*
%TO.C,MX54*%
X176212500Y-150018700D03*
D12*
X181292500Y-150018700D03*
D11*
X186372500Y-150018700D03*
D13*
X177482500Y-147478700D03*
X183832500Y-144938700D03*
%TD*%
D49*
%TO.C,R4*%
X344551007Y-190009207D03*
X343136793Y-188594993D03*
%TD*%
D16*
%TO.C,LED19*%
X125380750Y-114761199D03*
X125380750Y-113761201D03*
X122904250Y-113761201D03*
X122904250Y-114761199D03*
%TD*%
D11*
%TO.C,MX66*%
X104775000Y-169068700D03*
D12*
X109855000Y-169068700D03*
D11*
X114935000Y-169068700D03*
D13*
X106045000Y-166528700D03*
X112395000Y-163988700D03*
%TD*%
D16*
%TO.C,LED29*%
X330168250Y-114761199D03*
X330168250Y-113761201D03*
X327691750Y-113761201D03*
X327691750Y-114761199D03*
%TD*%
D47*
%TO.C,R22*%
X378333000Y-203692000D03*
X378333000Y-201692000D03*
%TD*%
D11*
%TO.C,MX42*%
X242887500Y-130968700D03*
D12*
X247967500Y-130968700D03*
D11*
X253047500Y-130968700D03*
D13*
X244157500Y-128428700D03*
X250507500Y-125888700D03*
%TD*%
D11*
%TO.C,MX20*%
X138112500Y-109061200D03*
D12*
X143192500Y-109061200D03*
D11*
X148272500Y-109061200D03*
D13*
X139382500Y-106521200D03*
X145732500Y-103981200D03*
%TD*%
D11*
%TO.C,MX48*%
X57150000Y-150018700D03*
D12*
X62230000Y-150018700D03*
D11*
X67310000Y-150018700D03*
D13*
X58420000Y-147478700D03*
X64770000Y-144938700D03*
%TD*%
D16*
%TO.C,LED62*%
X349218250Y-155718699D03*
X349218250Y-154718701D03*
X346741750Y-154718701D03*
X346741750Y-155718699D03*
%TD*%
D57*
%TO.C,R11*%
X208480351Y-38803049D03*
X207136849Y-40146551D03*
%TD*%
D11*
%TO.C,MX73*%
X238125000Y-169068700D03*
D12*
X243205000Y-169068700D03*
D11*
X248285000Y-169068700D03*
D13*
X239395000Y-166528700D03*
X245745000Y-163988700D03*
%TD*%
D11*
%TO.C,MX74*%
X257175000Y-169068700D03*
D12*
X262255000Y-169068700D03*
D11*
X267335000Y-169068700D03*
D13*
X258445000Y-166528700D03*
X264795000Y-163988700D03*
%TD*%
D11*
%TO.C,MX50*%
X100012500Y-150018700D03*
D12*
X105092500Y-150018700D03*
D11*
X110172500Y-150018700D03*
D13*
X101282500Y-147478700D03*
X107632500Y-144938700D03*
%TD*%
D16*
%TO.C,LED45*%
X313404250Y-135668701D03*
X313404250Y-136668699D03*
X315880750Y-136668699D03*
X315880750Y-135668701D03*
%TD*%
D11*
%TO.C,MX25*%
X242887500Y-109061200D03*
D12*
X247967500Y-109061200D03*
D11*
X253047500Y-109061200D03*
D13*
X244157500Y-106521200D03*
X250507500Y-103981200D03*
%TD*%
D11*
%TO.C,MX35*%
X109537500Y-130968700D03*
D12*
X114617500Y-130968700D03*
D11*
X119697500Y-130968700D03*
D13*
X110807500Y-128428700D03*
X117157500Y-125888700D03*
%TD*%
D34*
%TO.C,C14*%
X378333000Y-192416000D03*
X378333000Y-190616000D03*
%TD*%
D11*
%TO.C,MX23*%
X200025000Y-109061200D03*
D12*
X205105000Y-109061200D03*
D11*
X210185000Y-109061200D03*
D13*
X201295000Y-106521200D03*
X207645000Y-103981200D03*
%TD*%
D16*
%TO.C,LED74*%
X261016750Y-173768701D03*
X261016750Y-174768699D03*
X263493250Y-174768699D03*
X263493250Y-173768701D03*
%TD*%
D11*
%TO.C,MX13*%
X323850000Y-87153700D03*
D12*
X328930000Y-87153700D03*
D11*
X334010000Y-87153700D03*
D13*
X325120000Y-84613700D03*
X331470000Y-82073700D03*
%TD*%
D58*
%TO.C,C26*%
X176265131Y-48765669D03*
X176915669Y-48115131D03*
%TD*%
D11*
%TO.C,MX2*%
X71437500Y-87153700D03*
D12*
X76517500Y-87153700D03*
D11*
X81597500Y-87153700D03*
D13*
X72707500Y-84613700D03*
X79057500Y-82073700D03*
%TD*%
D16*
%TO.C,LED25*%
X249205750Y-114761199D03*
X249205750Y-113761201D03*
X246729250Y-113761201D03*
X246729250Y-114761199D03*
%TD*%
D11*
%TO.C,MX47*%
X361950000Y-130968700D03*
D12*
X367030000Y-130968700D03*
D11*
X372110000Y-130968700D03*
D13*
X363220000Y-128428700D03*
X369570000Y-125888700D03*
%TD*%
D16*
%TO.C,LED9*%
X227679250Y-91853701D03*
X227679250Y-92853699D03*
X230155750Y-92853699D03*
X230155750Y-91853701D03*
%TD*%
%TO.C,LED30*%
X349218250Y-114761199D03*
X349218250Y-113761201D03*
X346741750Y-113761201D03*
X346741750Y-114761199D03*
%TD*%
D11*
%TO.C,MX95*%
X78581300Y-207168700D03*
D12*
X83661300Y-207168700D03*
D11*
X88741300Y-207168700D03*
D13*
X79851300Y-204628700D03*
X86201300Y-202088700D03*
%TD*%
D11*
%TO.C,MX65*%
X85725000Y-169068700D03*
D12*
X90805000Y-169068700D03*
D11*
X95885000Y-169068700D03*
D13*
X86995000Y-166528700D03*
X93345000Y-163988700D03*
%TD*%
D11*
%TO.C,MX18*%
X100012500Y-109061200D03*
D12*
X105092500Y-109061200D03*
D11*
X110172500Y-109061200D03*
D13*
X101282500Y-106521200D03*
X107632500Y-103981200D03*
%TD*%
D16*
%TO.C,LED46*%
X346741750Y-135668701D03*
X346741750Y-136668699D03*
X349218250Y-136668699D03*
X349218250Y-135668701D03*
%TD*%
D11*
%TO.C,MX101*%
X319087500Y-207168700D03*
D12*
X324167500Y-207168700D03*
D11*
X329247500Y-207168700D03*
D13*
X320357500Y-204628700D03*
X326707500Y-202088700D03*
%TD*%
D59*
%TO.C,Y1*%
X173386096Y-59477296D03*
X179396504Y-65487704D03*
%TD*%
D16*
%TO.C,LED44*%
X284829250Y-135668701D03*
X284829250Y-136668699D03*
X287305750Y-136668699D03*
X287305750Y-135668701D03*
%TD*%
D11*
%TO.C,MX12*%
X285750000Y-87153700D03*
D12*
X290830000Y-87153700D03*
D11*
X295910000Y-87153700D03*
D13*
X287020000Y-84613700D03*
X293370000Y-82073700D03*
%TD*%
D60*
%TO.C,C38*%
X295983469Y-51873069D03*
X295332931Y-51222531D03*
%TD*%
%TO.C,C30*%
X181162369Y-58346369D03*
X180511831Y-57695831D03*
%TD*%
D16*
%TO.C,LED23*%
X206343250Y-114761199D03*
X206343250Y-113761201D03*
X203866750Y-113761201D03*
X203866750Y-114761199D03*
%TD*%
D11*
%TO.C,MX7*%
X180975000Y-87153700D03*
D12*
X186055000Y-87153700D03*
D11*
X191135000Y-87153700D03*
D13*
X182245000Y-84613700D03*
X188595000Y-82073700D03*
%TD*%
D61*
%TO.C,Polyfuse1*%
X243938000Y-41402000D03*
X246888000Y-41402000D03*
%TD*%
D11*
%TO.C,MX10*%
X242887500Y-87153700D03*
D12*
X247967500Y-87153700D03*
D11*
X253047500Y-87153700D03*
D13*
X244157500Y-84613700D03*
X250507500Y-82073700D03*
%TD*%
D16*
%TO.C,LED36*%
X132429250Y-135668701D03*
X132429250Y-136668699D03*
X134905750Y-136668699D03*
X134905750Y-135668701D03*
%TD*%
D11*
%TO.C,MX58*%
X252412500Y-150018700D03*
D12*
X257492500Y-150018700D03*
D11*
X262572500Y-150018700D03*
D13*
X253682500Y-147478700D03*
X260032500Y-144938700D03*
%TD*%
D62*
%TO.C,Rotary_Encoder(20mm)_S4*%
X374396000Y-205115000D03*
D63*
X374396000Y-210115000D03*
X359896000Y-205115000D03*
X359896000Y-210115000D03*
X359896000Y-207615000D03*
D64*
X367396000Y-202015000D03*
X367396000Y-213215000D03*
%TD*%
D60*
%TO.C,C25*%
X176834800Y-53187600D03*
X176184262Y-52537062D03*
%TD*%
D16*
%TO.C,LED32*%
X56229250Y-135668701D03*
X56229250Y-136668699D03*
X58705750Y-136668699D03*
X58705750Y-135668701D03*
%TD*%
D11*
%TO.C,MX36*%
X128587500Y-130968700D03*
D12*
X133667500Y-130968700D03*
D11*
X138747500Y-130968700D03*
D13*
X129857500Y-128428700D03*
X136207500Y-125888700D03*
%TD*%
D52*
%TO.C,H5*%
X309753000Y-87249000D03*
%TD*%
D11*
%TO.C,MX90*%
X266700000Y-188118700D03*
D12*
X271780000Y-188118700D03*
D11*
X276860000Y-188118700D03*
D13*
X267970000Y-185578700D03*
X274320000Y-183038700D03*
%TD*%
D65*
%TO.C,R10*%
X177277595Y-56643205D03*
X177935205Y-55985595D03*
%TD*%
D16*
%TO.C,LED17*%
X87280750Y-114761199D03*
X87280750Y-113761201D03*
X84804250Y-113761201D03*
X84804250Y-114761199D03*
%TD*%
%TO.C,LED38*%
X170529250Y-135668701D03*
X170529250Y-136668699D03*
X173005750Y-136668699D03*
X173005750Y-135668701D03*
%TD*%
D11*
%TO.C,MX64*%
X59531300Y-169068700D03*
D12*
X64611300Y-169068700D03*
D11*
X69691300Y-169068700D03*
D13*
X60801300Y-166528700D03*
X67151300Y-163988700D03*
%TD*%
D11*
%TO.C,MX14*%
X342900000Y-87153700D03*
D12*
X347980000Y-87153700D03*
D11*
X353060000Y-87153700D03*
D13*
X344170000Y-84613700D03*
X350520000Y-82073700D03*
%TD*%
D16*
%TO.C,LED72*%
X222916750Y-173768701D03*
X222916750Y-174768699D03*
X225393250Y-174768699D03*
X225393250Y-173768701D03*
%TD*%
%TO.C,LED11*%
X270541750Y-91853701D03*
X270541750Y-92853699D03*
X273018250Y-92853699D03*
X273018250Y-91853701D03*
%TD*%
%TO.C,LED8*%
X203866750Y-91853701D03*
X203866750Y-92853699D03*
X206343250Y-92853699D03*
X206343250Y-91853701D03*
%TD*%
D11*
%TO.C,MX76*%
X295275000Y-169068700D03*
D12*
X300355000Y-169068700D03*
D11*
X305435000Y-169068700D03*
D13*
X296545000Y-166528700D03*
X302895000Y-163988700D03*
%TD*%
D66*
%TO.C,JSTPH4-PIN1*%
X105283000Y-52674000D03*
X105283000Y-54674000D03*
X105283000Y-56674000D03*
X105283000Y-58674000D03*
D67*
X107533000Y-50274000D03*
X107533000Y-61074000D03*
%TD*%
D11*
%TO.C,MX57*%
X233362500Y-150018700D03*
D12*
X238442500Y-150018700D03*
D11*
X243522500Y-150018700D03*
D13*
X234632500Y-147478700D03*
X240982500Y-144938700D03*
%TD*%
D16*
%TO.C,LED76*%
X299116750Y-173768701D03*
X299116750Y-174768699D03*
X301593250Y-174768699D03*
X301593250Y-173768701D03*
%TD*%
M02*
