M48
; DRILL file {KiCad 7.0.8} date Fri Feb 16 20:16:14 2024
; FORMAT={-:-/ absolute / metric / decimal}
; #@! TF.CreationDate,2024-02-16T20:16:14-06:00
; #@! TF.GenerationSoftware,Kicad,Pcbnew,7.0.8
; #@! TF.FileFunction,NonPlated,1,2,NPTH
FMAT,2
METRIC
; #@! TA.AperFunction,NonPlated,NPTH,ComponentDrill
T1C0.800
; #@! TA.AperFunction,NonPlated,NPTH,ComponentDrill
T2C1.750
; #@! TA.AperFunction,NonPlated,NPTH,ComponentDrill
T3C3.048
; #@! TA.AperFunction,NonPlated,NPTH,ComponentDrill
T4C3.988
; #@! TA.AperFunction,NonPlated,NPTH,ComponentDrill
T5C4.000
; #@! TA.AperFunction,NonPlated,NPTH,ComponentDrill
T6C5.500
; #@! TA.AperFunction,NonPlated,NPTH,ComponentDrill
T7C7.000
%
G90
G05
T1
X242.28Y-33.023
X248.88Y-33.023
T2
X52.387Y-87.154
X52.387Y-109.061
X52.387Y-130.969
X54.769Y-188.119
X54.769Y-207.169
X57.15Y-150.019
X59.531Y-169.069
X62.547Y-87.154
X62.547Y-109.061
X62.547Y-130.969
X64.929Y-188.119
X64.929Y-207.169
X67.31Y-150.019
X69.691Y-169.069
X71.438Y-87.154
X71.438Y-130.969
X76.2Y-188.119
X78.581Y-207.169
X80.962Y-109.061
X80.962Y-150.019
X81.597Y-87.154
X81.597Y-130.969
X85.725Y-169.069
X86.36Y-188.119
X88.741Y-207.169
X90.487Y-130.969
X91.123Y-109.061
X91.123Y-150.019
X95.25Y-87.154
X95.25Y-188.119
X95.885Y-169.069
X100.012Y-109.061
X100.012Y-150.019
X100.647Y-130.969
X102.394Y-207.169
X104.775Y-169.069
X105.41Y-87.154
X105.41Y-188.119
X109.537Y-130.969
X110.172Y-109.061
X110.172Y-150.019
X112.554Y-207.169
X114.3Y-87.154
X114.3Y-188.119
X114.935Y-169.069
X119.062Y-109.061
X119.062Y-150.019
X119.697Y-130.969
X123.825Y-169.069
X124.46Y-87.154
X124.46Y-188.119
X128.588Y-130.969
X129.222Y-109.061
X129.222Y-150.019
X133.35Y-188.119
X133.985Y-169.069
X138.112Y-87.154
X138.112Y-109.061
X138.112Y-150.019
X138.748Y-130.969
X142.875Y-169.069
X143.51Y-188.119
X147.637Y-130.969
X148.272Y-87.154
X148.272Y-109.061
X148.272Y-150.019
X152.4Y-188.119
X153.035Y-169.069
X157.162Y-87.154
X157.162Y-150.019
X157.797Y-130.969
X161.925Y-109.061
X161.925Y-169.069
X162.56Y-188.119
X166.688Y-130.969
X167.322Y-87.154
X167.322Y-150.019
X171.45Y-188.119
X172.085Y-109.061
X172.085Y-169.069
X173.831Y-207.169
X176.213Y-150.019
X176.847Y-130.969
X180.975Y-87.154
X180.975Y-109.061
X180.975Y-169.069
X181.61Y-188.119
X183.991Y-207.169
X185.737Y-130.969
X186.373Y-150.019
X190.5Y-188.119
X191.135Y-87.154
X191.135Y-109.061
X191.135Y-169.069
X195.262Y-150.019
X195.897Y-130.969
X200.025Y-87.154
X200.025Y-109.061
X200.025Y-169.069
X200.66Y-188.119
X204.787Y-130.969
X205.422Y-150.019
X209.55Y-188.119
X210.185Y-87.154
X210.185Y-109.061
X210.185Y-169.069
X214.312Y-150.019
X214.947Y-130.969
X219.075Y-109.061
X219.075Y-169.069
X219.71Y-188.119
X223.837Y-87.154
X223.837Y-130.969
X224.472Y-150.019
X228.6Y-188.119
X229.235Y-109.061
X229.235Y-169.069
X233.362Y-150.019
X233.998Y-87.154
X233.998Y-130.969
X238.125Y-169.069
X238.76Y-188.119
X242.887Y-87.154
X242.887Y-109.061
X242.887Y-130.969
X243.522Y-150.019
X245.269Y-207.169
X247.65Y-188.119
X248.285Y-169.069
X252.412Y-150.019
X253.047Y-87.154
X253.047Y-109.061
X253.047Y-130.969
X255.429Y-207.169
X257.175Y-169.069
X257.81Y-188.119
X261.938Y-109.061
X261.938Y-130.969
X262.572Y-150.019
X266.7Y-87.154
X266.7Y-188.119
X267.335Y-169.069
X269.081Y-207.169
X271.462Y-150.019
X272.097Y-109.061
X272.097Y-130.969
X276.225Y-169.069
X276.86Y-87.154
X276.86Y-188.119
X279.241Y-207.169
X280.988Y-109.061
X280.988Y-130.969
X281.623Y-150.019
X285.75Y-87.154
X286.385Y-169.069
X290.512Y-150.019
X291.147Y-109.061
X291.147Y-130.969
X292.894Y-188.119
X295.275Y-169.069
X295.91Y-87.154
X300.037Y-109.061
X300.037Y-207.169
X300.673Y-150.019
X303.054Y-188.119
X305.435Y-169.069
X309.562Y-130.969
X310.197Y-109.061
X310.197Y-207.169
X316.706Y-159.544
X319.087Y-188.119
X319.087Y-207.169
X319.722Y-130.969
X323.85Y-87.154
X323.85Y-109.061
X326.866Y-159.544
X329.248Y-188.119
X329.248Y-207.169
X334.01Y-87.154
X334.01Y-109.061
X338.137Y-207.169
X342.9Y-87.154
X342.9Y-109.061
X342.9Y-130.969
X342.9Y-150.019
X342.9Y-169.069
X348.297Y-207.169
X353.06Y-87.154
X353.06Y-109.061
X353.06Y-130.969
X353.06Y-150.019
X353.06Y-169.069
X361.95Y-87.154
X361.95Y-109.061
X361.95Y-130.969
X361.95Y-150.019
X361.95Y-169.069
X361.95Y-188.119
X372.11Y-87.154
X372.11Y-109.061
X372.11Y-130.969
X372.11Y-150.019
X372.11Y-169.069
X372.11Y-188.119
T3
X128.911Y-214.154
X228.911Y-214.154
X302.704Y-137.954
X314.801Y-147.606
X314.801Y-171.482
X326.58Y-137.954
T4
X128.911Y-198.944
X228.911Y-198.944
X302.704Y-122.744
X326.58Y-122.744
X330.011Y-147.606
X330.011Y-171.482
T5
X57.467Y-87.154
X57.467Y-109.061
X57.467Y-130.969
X59.849Y-188.119
X59.849Y-207.169
X62.23Y-150.019
X64.611Y-169.069
X76.517Y-87.154
X76.517Y-130.969
X81.28Y-188.119
X83.661Y-207.169
X86.042Y-109.061
X86.042Y-150.019
X90.805Y-169.069
X95.567Y-130.969
X100.33Y-87.154
X100.33Y-188.119
X105.093Y-109.061
X105.093Y-150.019
X107.474Y-207.169
X109.855Y-169.069
X114.617Y-130.969
X119.38Y-87.154
X119.38Y-188.119
X124.142Y-109.061
X124.142Y-150.019
X128.905Y-169.069
X133.667Y-130.969
X138.43Y-188.119
X143.192Y-87.154
X143.192Y-109.061
X143.192Y-150.019
X147.955Y-169.069
X152.718Y-130.969
X157.48Y-188.119
X162.243Y-87.154
X162.243Y-150.019
X167.005Y-109.061
X167.005Y-169.069
X171.767Y-130.969
X176.53Y-188.119
X178.911Y-207.169
X181.292Y-150.019
X186.055Y-87.154
X186.055Y-109.061
X186.055Y-169.069
X190.817Y-130.969
X195.58Y-188.119
X200.343Y-150.019
X205.105Y-87.154
X205.105Y-109.061
X205.105Y-169.069
X209.867Y-130.969
X214.63Y-188.119
X219.392Y-150.019
X224.155Y-109.061
X224.155Y-169.069
X228.917Y-87.154
X228.917Y-130.969
X233.68Y-188.119
X238.442Y-150.019
X243.205Y-169.069
X247.968Y-87.154
X247.968Y-109.061
X247.968Y-130.969
X250.349Y-207.169
X252.73Y-188.119
X257.493Y-150.019
X262.255Y-169.069
X267.017Y-109.061
X267.017Y-130.969
X271.78Y-87.154
X271.78Y-188.119
X274.161Y-207.169
X276.542Y-150.019
X281.305Y-169.069
X286.067Y-109.061
X286.067Y-130.969
X290.83Y-87.154
X295.592Y-150.019
X297.974Y-188.119
X300.355Y-169.069
X305.118Y-109.061
X305.118Y-207.169
X314.642Y-130.969
X321.786Y-159.544
X324.167Y-188.119
X324.167Y-207.169
X328.93Y-87.154
X328.93Y-109.061
X343.217Y-207.169
X347.98Y-87.154
X347.98Y-109.061
X347.98Y-130.969
X347.98Y-150.019
X347.98Y-169.069
X367.03Y-87.154
X367.03Y-109.061
X367.03Y-130.969
X367.03Y-150.019
X367.03Y-169.069
X367.03Y-188.119
T6
X54.229Y-36.195
X290.819Y-207.137
X309.753Y-87.249
X371.729Y-36.195
T7
X49.784Y-169.025
T0
M30
